<?xml version="1.0" encoding="UTF-8" standalone="no"?>
<!-- Created with Inkscape (http://www.inkscape.org/) -->

<svg
   width="210mm"
   height="297mm"
   viewBox="0 0 210 297"
   version="1.1"
   id="svg1"
   xml:space="preserve"
   inkscape:export-filename="..\..\..\..\..\..\..\home\rob\rdev\HomeAutomation\ScaderESP32\pcbs\Scader LEDs\PCB Legend\Scader LEDs PCB Legend Scader LEDs.svg"
   inkscape:export-xdpi="150"
   inkscape:export-ydpi="150"
   inkscape:version="1.3.2 (091e20e, 2023-11-25, custom)"
   sodipodi:docname="PCB Legends.svg"
   xmlns:inkscape="http://www.inkscape.org/namespaces/inkscape"
   xmlns:sodipodi="http://sodipodi.sourceforge.net/DTD/sodipodi-0.dtd"
   xmlns="http://www.w3.org/2000/svg"
   xmlns:svg="http://www.w3.org/2000/svg"><sodipodi:namedview
     id="namedview1"
     pagecolor="#727272"
     bordercolor="#000000"
     borderopacity="0.25"
     inkscape:showpageshadow="2"
     inkscape:pageopacity="0.0"
     inkscape:pagecheckerboard="0"
     inkscape:deskcolor="#7e7e7e"
     inkscape:document-units="mm"
     inkscape:zoom="3.358777"
     inkscape:cx="107.4796"
     inkscape:cy="134.42393"
     inkscape:window-width="2747"
     inkscape:window-height="1237"
     inkscape:window-x="3610"
     inkscape:window-y="148"
     inkscape:window-maximized="0"
     inkscape:current-layer="layer1" /><defs
     id="defs1" /><g
     inkscape:groupmode="layer"
     id="layer2"
     inkscape:label="Layer 2"
     style="display:inline" /><g
     inkscape:label="Layer 1"
     inkscape:groupmode="layer"
     id="layer1"><rect
       style="fill:#ffffff;fill-opacity:1;stroke:none;stroke-width:0.264583"
       id="rect1"
       width="19.328911"
       height="4.7613716"
       x="11.529633"
       y="10.482502"
       rx="0.83303696"
       ry="0.72652358" /><path
       id="rect1-5-7-3-9-9-6-38-0-9-9"
       style="fill:#ffffff;fill-opacity:1;stroke:none;stroke-width:1.14177;stroke-opacity:1;shape-rendering:crispEdges"
       d="m 13.62968,20.106421 c -0.248894,-0.0017 -0.450653,0.192992 -0.452173,0.436666 l -0.0088,1.41025 c -0.0015,0.243674 0.197591,0.441158 0.446485,0.442867 l 9.780799,0.06718 c 0.248884,0.0017 0.450643,-0.192992 0.452164,-0.436666 l 0.0088,-1.41025 c 0.0015,-0.243674 -0.197601,-0.441158 -0.446485,-0.442867 z m 2.09341,0.459921 0.177764,0.0016 -0.0041,0.657324 c 0.07732,-0.127654 0.187076,-0.191103 0.329693,-0.19017 0.110247,7.23e-4 0.205742,0.04512 0.28577,0.133843 0.08073,0.08873 0.120692,0.193961 0.119895,0.315226 -7.96e-4,0.121265 -0.04144,0.226868 -0.121962,0.317294 -0.07982,0.08974 -0.172943,0.134536 -0.27905,0.133841 -0.06821,-4.46e-4 -0.132702,-0.01941 -0.193783,-0.05633 -0.06108,-0.03692 -0.109453,-0.08641 -0.144181,-0.149345 l -10e-4,0.179834 -0.177764,-0.0015 z m -2.036053,0.01188 0.285256,0.0016 c 0.141937,9.3e-4 0.257301,0.03749 0.345716,0.109038 0.08911,0.07086 0.133018,0.16106 0.13229,0.271301 -5.7e-4,0.08819 -0.03005,0.165917 -0.08837,0.233061 -0.05832,0.06714 -0.148996,0.114319 -0.271816,0.141077 l 0.379817,0.565856 -0.205664,-0.0016 -0.362252,-0.544152 h -0.04031 l -0.0036,0.541569 -0.179837,-0.001 z m 6.124695,0.01499 0.177767,10e-4 -0.0041,0.657325 c 0.07732,-0.127655 0.187073,-0.190586 0.32969,-0.189653 0.110247,7.22e-4 0.205222,0.04512 0.28526,0.133842 0.08072,0.08873 0.120682,0.193962 0.119885,0.315227 -7.96e-4,0.121264 -0.04144,0.226868 -0.121952,0.317293 -0.07983,0.08974 -0.172433,0.134537 -0.27854,0.133842 -0.06821,-4.46e-4 -0.133222,-0.01941 -0.194303,-0.05633 -0.06108,-0.03692 -0.108929,-0.08693 -0.143657,-0.149861 l -10e-4,0.179835 -0.177767,-0.001 z m -2.345074,0.0093 0.31936,0.0026 c 0.252865,0.0017 0.440294,0.06965 0.562758,0.204122 0.122453,0.134474 0.18302,0.287325 0.1819,0.458887 -0.0011,0.17294 -0.06545,0.325709 -0.193791,0.457853 -0.128337,0.132144 -0.314368,0.197446 -0.557593,0.195853 l -0.32142,-0.0026 z m -3.600817,0.135909 -0.0031,0.458887 c 0.26523,0.0072 0.398417,-0.06873 0.39946,-0.227893 3.68e-4,-0.05581 -0.0147,-0.1016 -0.04548,-0.136942 -0.03077,-0.03603 -0.07191,-0.06012 -0.123508,-0.07286 -0.05159,-0.01343 -0.127464,-0.02053 -0.227372,-0.02119 z m 3.779615,0.04134 -0.0067,0.963248 h 0.01034 c 0.133667,8.75e-4 0.234701,-0.0042 0.302303,-0.0155 0.06761,-0.01196 0.131851,-0.0383 0.192754,-0.07855 0.0609,-0.04025 0.109466,-0.0936 0.145732,-0.160196 0.03627,-0.06729 0.05424,-0.141078 0.05477,-0.221692 6.62e-4,-0.101283 -0.02707,-0.193069 -0.08371,-0.275435 -0.05666,-0.08237 -0.124901,-0.138143 -0.204643,-0.166915 -0.07905,-0.02877 -0.185522,-0.04356 -0.319879,-0.04444 z m -2.604495,0.247529 c 0.122647,8.04e-4 0.229866,0.04626 0.320915,0.136426 0.09105,0.08948 0.136172,0.193961 0.135389,0.313159 -7.89e-4,0.119887 -0.0466,0.225214 -0.137457,0.31626 -0.09016,0.09036 -0.194306,0.13513 -0.312124,0.134359 -0.126087,-8.25e-4 -0.235204,-0.04659 -0.327629,-0.13746 -0.09173,-0.09086 -0.13723,-0.197406 -0.136429,-0.31936 7.66e-4,-0.116441 0.0473,-0.219365 0.139531,-0.309025 0.09292,-0.09034 0.198607,-0.135139 0.317804,-0.134359 z m 4.088641,0.02687 c 0.122648,8.03e-4 0.229346,0.04625 0.320395,0.136425 0.09105,0.08948 0.136176,0.193445 0.135392,0.312644 -7.88e-4,0.119886 -0.0466,0.225729 -0.137459,0.316776 -0.09017,0.09036 -0.193787,0.13513 -0.311615,0.134358 -0.126087,-8.25e-4 -0.235714,-0.04659 -0.328138,-0.137458 -0.09173,-0.09086 -0.137231,-0.197407 -0.13643,-0.319361 7.66e-4,-0.116442 0.0473,-0.219365 0.139531,-0.309025 0.09292,-0.09034 0.199127,-0.13514 0.318324,-0.134359 z m 2.062926,0.01344 c 0.08061,5.28e-4 0.170388,0.04258 0.269745,0.126608 l -0.120407,0.104902 c -0.03086,-0.02225 -0.05743,-0.03895 -0.0801,-0.05013 -0.02266,-0.01186 -0.04961,-0.01788 -0.08061,-0.01809 -0.07304,-4.79e-4 -0.109723,0.02584 -0.110069,0.07958 -2.61e-4,0.03859 0.04588,0.07657 0.137973,0.113688 0.09278,0.03644 0.159098,0.07622 0.199466,0.11989 0.04037,0.04367 0.06035,0.09629 0.05995,0.157613 -4.67e-4,0.07166 -0.02997,0.134226 -0.08888,0.187585 -0.05891,0.05267 -0.127993,0.07855 -0.207221,0.07803 -0.120578,-7.89e-4 -0.21915,-0.05686 -0.295591,-0.168982 l 0.142111,-0.06718 c 0.04929,0.04856 0.100767,0.07303 0.154516,0.07338 0.0372,2.44e-4 0.06945,-0.0097 0.09714,-0.02946 0.02839,-0.02049 0.04272,-0.04444 0.0429,-0.07131 3.07e-4,-0.04754 -0.04813,-0.09065 -0.145727,-0.129191 -0.09759,-0.03853 -0.165453,-0.07692 -0.203091,-0.115756 -0.03695,-0.03952 -0.05515,-0.08802 -0.05477,-0.14521 4.63e-4,-0.07097 0.02725,-0.129712 0.08061,-0.176217 0.05405,-0.04719 0.121441,-0.07029 0.202059,-0.06976 z m 0.868161,0.0057 c 0.122648,8.03e-4 0.229346,0.04625 0.320395,0.136427 0.09105,0.08948 0.136173,0.19396 0.135389,0.313159 -7.78e-4,0.119886 -0.0466,0.225212 -0.137456,0.316259 -0.09017,0.09036 -0.193787,0.135131 -0.311615,0.134359 -0.126087,-8.26e-4 -0.235713,-0.04659 -0.328138,-0.137459 -0.09173,-0.09086 -0.137231,-0.197407 -0.13643,-0.319361 7.66e-4,-0.116441 0.0473,-0.219365 0.139531,-0.309025 0.09291,-0.09034 0.199127,-0.135138 0.318324,-0.134359 z m 1.074869,0.0067 c 0.07717,5.05e-4 0.142786,0.02669 0.196887,0.07803 0.05479,0.05135 0.08212,0.112828 0.08165,0.184485 l -0.0041,0.615983 -0.179837,-10e-4 0.0036,-0.563273 c 3.08e-4,-0.04616 -0.01483,-0.08472 -0.04495,-0.115238 -0.02943,-0.03051 -0.06701,-0.04569 -0.113175,-0.04599 -0.05994,-3.93e-4 -0.111807,0.02474 -0.155544,0.07545 -0.04373,0.05001 -0.06567,0.110762 -0.06615,0.182418 l -0.0031,0.464054 -0.177767,-0.001 0.0057,-0.852661 0.175707,10e-4 -0.001,0.141594 c 0.05204,-0.05685 0.09887,-0.09812 0.141076,-0.124024 0.0422,-0.0266 0.08939,-0.04013 0.141071,-0.03979 z m -6.97838,0.117822 c -0.07649,-5.01e-4 -0.143121,0.02707 -0.199993,0.0832 -0.05618,0.05544 -0.08425,0.121442 -0.08475,0.197921 -5.29e-4,0.07992 0.02672,0.147603 0.08216,0.203089 0.05614,0.0548 0.125227,0.08266 0.207225,0.0832 0.07579,4.96e-4 0.141053,-0.02723 0.19585,-0.08268 0.05549,-0.05545 0.08372,-0.121614 0.08424,-0.199471 5.06e-4,-0.07786 -0.02724,-0.14502 -0.08268,-0.200505 -0.05545,-0.05617 -0.122827,-0.08423 -0.202056,-0.08475 z m -1.111046,0.0072 c -0.07786,-5.1e-4 -0.145205,0.02604 -0.202054,0.0801 -0.05616,0.05338 -0.08426,0.117652 -0.08475,0.192754 -4.67e-4,0.07166 0.02705,0.134507 0.0832,0.188619 0.05683,0.05412 0.123502,0.08166 0.199981,0.08216 0.07442,4.88e-4 0.13969,-0.02689 0.195853,-0.08165 0.05617,-0.05476 0.08479,-0.118686 0.08527,-0.19172 4.71e-4,-0.07234 -0.02688,-0.135205 -0.08165,-0.188619 -0.05477,-0.0541 -0.120066,-0.08115 -0.195854,-0.08165 z m 5.199678,0.01964 c -0.07648,-5e-4 -0.143112,0.02707 -0.199983,0.0832 -0.05618,0.05544 -0.08477,0.121442 -0.08527,0.197921 -5.29e-4,0.07992 0.02723,0.147602 0.08268,0.203089 0.05614,0.0548 0.125227,0.08266 0.207215,0.0832 0.0758,4.96e-4 0.141063,-0.02723 0.19586,-0.08268 0.05549,-0.05545 0.0832,-0.122131 0.08372,-0.199988 5.06e-4,-0.07786 -0.02672,-0.144503 -0.08217,-0.199988 -0.05544,-0.05617 -0.122817,-0.08423 -0.202055,-0.08475 z m -1.111037,0.0072 c -0.07786,-5.1e-4 -0.145205,0.02604 -0.202054,0.0801 -0.05616,0.05338 -0.08478,0.117652 -0.08527,0.192753 -4.67e-4,0.07166 0.02757,0.134506 0.08373,0.188618 0.05683,0.05412 0.123502,0.08166 0.199981,0.08217 0.07442,4.87e-4 0.13968,-0.02689 0.195853,-0.08165 0.05617,-0.05476 0.08427,-0.118685 0.08475,-0.19172 4.81e-4,-0.07235 -0.02636,-0.135205 -0.08113,-0.188619 -0.05477,-0.0541 -0.120066,-0.08115 -0.195854,-0.08165 z m 2.931087,0.01912 c -0.07786,-5.1e-4 -0.145205,0.02604 -0.202053,0.0801 -0.05617,0.05338 -0.08478,0.117652 -0.08527,0.192753 -4.67e-4,0.07166 0.02757,0.134507 0.08373,0.188618 0.05683,0.05412 0.123503,0.08167 0.199981,0.08217 0.07442,4.87e-4 0.13968,-0.02689 0.195853,-0.08165 0.05617,-0.05476 0.08427,-0.118685 0.08475,-0.19172 4.82e-4,-0.07235 -0.02636,-0.135205 -0.08112,-0.188619 -0.05477,-0.0541 -0.120066,-0.08115 -0.195855,-0.08165 z"
       inkscape:export-filename="Rob Dobson.svg"
       inkscape:export-xdpi="150"
       inkscape:export-ydpi="150" /><text
       xml:space="preserve"
       style="font-size:3.52778px;line-height:0.8;font-family:Calibri;-inkscape-font-specification:'Calibri, Normal';fill:#000000;fill-opacity:1;stroke:none;stroke-width:2.64599;stroke-opacity:1"
       x="21.310589"
       y="13.847175"
       id="text2-6-5-7-5-1-8-9-8-7-4-2-5"
       transform="rotate(0.375064)"><tspan
         sodipodi:role="line"
         style="font-style:normal;font-variant:normal;font-weight:normal;font-stretch:normal;font-size:3.52778px;line-height:0.8;font-family:'Tw Cen MT';-inkscape-font-specification:'Tw Cen MT, Normal';font-variant-ligatures:normal;font-variant-caps:normal;font-variant-numeric:normal;font-variant-east-asian:normal;text-align:center;text-anchor:middle;fill:#000000;fill-opacity:1;stroke:none;stroke-width:2.646;stroke-opacity:1"
         x="21.310589"
         y="13.847175"
         id="tspan1-7">Scader LEDs</tspan></text><path
       id="rect1-0"
       style="fill:#ffffff;stroke-width:0.264583;shape-rendering:crispEdges"
       d="M 34.241321 10.67015 C 33.779818 10.67015 33.408297 10.99371 33.408297 11.396204 L 33.408297 14.704529 C 33.408297 15.107022 33.779818 15.431099 34.241321 15.431099 L 51.904325 15.431099 C 52.365827 15.431099 52.737349 15.107022 52.737349 14.704529 L 52.737349 11.396204 C 52.737349 10.99371 52.365827 10.67015 51.904325 10.67015 L 34.241321 10.67015 z M 35.445382 11.858708 C 35.564809 11.859489 35.685616 11.885806 35.80815 11.938289 C 35.930684 11.990766 36.032717 12.070334 36.113558 12.176518 L 35.869128 12.369271 C 35.805259 12.302245 35.747077 12.252424 35.694462 12.219926 C 35.643008 12.186288 35.567913 12.169413 35.469153 12.168766 C 35.361209 12.16806 35.273162 12.192178 35.205086 12.241113 C 35.138165 12.28891 35.104304 12.351245 35.1038 12.428182 C 35.103364 12.494787 35.13239 12.553891 35.190617 12.605949 C 35.248851 12.656858 35.348459 12.71366 35.489307 12.775448 C 35.630161 12.836084 35.73971 12.892643 35.817452 12.94598 C 35.896349 12.998177 35.960608 13.056127 36.010722 13.119613 C 36.060834 13.183102 36.097652 13.249911 36.121309 13.320117 C 36.146117 13.390332 36.158511 13.464756 36.158 13.542843 C 36.156804 13.725429 36.08896 13.880188 35.954911 14.007931 C 35.82201 14.13568 35.661615 14.199333 35.473287 14.1981 C 35.289552 14.196897 35.127087 14.145967 34.986495 14.045138 C 34.847059 13.943166 34.740059 13.791324 34.665584 13.589868 L 34.965824 13.507186 C 35.0733 13.754793 35.239944 13.879333 35.465019 13.880806 C 35.574111 13.881521 35.665096 13.849667 35.73787 13.784688 C 35.810644 13.719703 35.847287 13.637061 35.847941 13.537158 C 35.848332 13.477446 35.829632 13.417804 35.792131 13.357841 C 35.754636 13.296734 35.708103 13.246361 35.652087 13.206946 C 35.596078 13.167532 35.506037 13.122775 35.382336 13.072587 C 35.259795 13.021257 35.165483 12.974838 35.09915 12.933061 C 35.033969 12.890146 34.977503 12.839385 34.929651 12.781649 C 34.881802 12.722768 34.846303 12.664549 34.823714 12.606982 C 34.802271 12.549421 34.791763 12.487951 34.792192 12.422498 C 34.793221 12.265175 34.857389 12.131936 34.984428 12.022522 C 35.111475 11.91196 35.265092 11.857527 35.445382 11.858708 z M 41.003699 11.924337 L 41.299805 11.925887 L 41.285335 14.161926 L 40.99233 14.159859 L 40.994397 13.863753 C 40.851685 14.086755 40.666361 14.197529 40.437842 14.196033 C 40.252959 14.194822 40.094541 14.119723 39.963452 13.970723 C 39.832363 13.821723 39.767788 13.643206 39.769149 13.435356 C 39.770479 13.2321 39.838994 13.057866 39.974304 12.912907 C 40.109622 12.766798 40.269897 12.694648 40.455929 12.695866 C 40.567317 12.696595 40.670966 12.728307 40.767021 12.790951 C 40.863075 12.853594 40.939701 12.9351 40.996464 13.03538 L 41.003699 11.924337 z M 45.743978 11.996684 L 46.040084 11.998234 L 46.027681 13.896826 L 46.742367 13.901477 L 46.740816 14.197583 L 45.729508 14.190865 L 45.743978 11.996684 z M 47.033822 12.004952 L 48.250285 12.012703 L 48.248218 12.312427 L 47.328377 12.306742 L 47.32476 12.854513 L 48.2446 12.860197 L 48.242533 13.15682 L 47.322693 13.150618 L 47.318042 13.905094 L 48.237882 13.911296 L 48.235815 14.207402 L 47.019869 14.19965 L 47.033822 12.004952 z M 48.606852 12.015287 L 49.139119 12.018905 C 49.56056 12.021663 49.872952 12.134812 50.077047 12.358936 C 50.281141 12.583059 50.382259 12.838327 50.380387 13.124264 C 50.378501 13.412497 50.270787 13.666769 50.056893 13.887008 C 49.843 14.107247 49.533115 14.21574 49.127751 14.213086 L 48.592383 14.209985 L 48.606852 12.015287 z M 48.904508 12.309843 L 48.894173 13.91543 L 48.911226 13.91543 C 49.134005 13.916888 49.30189 13.908374 49.414555 13.889591 C 49.527227 13.869655 49.633968 13.825938 49.735465 13.75885 C 49.836963 13.691759 49.917902 13.602681 49.978345 13.491683 C 50.038793 13.379536 50.069449 13.256552 50.070329 13.122196 C 50.071434 12.95339 50.024704 12.800069 49.930286 12.662793 C 49.835868 12.525517 49.722637 12.433245 49.589738 12.385291 C 49.457987 12.337347 49.279847 12.312342 49.05592 12.310876 L 48.904508 12.309843 z M 37.16259 12.674162 C 37.294649 12.675026 37.43067 12.710281 37.570317 12.780098 L 37.56825 13.114445 C 37.418448 13.017 37.276275 12.96753 37.141919 12.96665 C 37.017898 12.965839 36.90891 13.009177 36.815324 13.095841 C 36.721737 13.182507 36.674497 13.284118 36.67373 13.401249 C 36.672866 13.533308 36.715725 13.645339 36.802405 13.736629 C 36.889092 13.826771 36.995965 13.872228 37.122282 13.873055 C 37.250896 13.873897 37.398003 13.817308 37.564115 13.703556 L 37.562048 14.046171 C 37.408748 14.132445 37.26014 14.175268 37.116597 14.174329 C 36.920231 14.173043 36.748557 14.098527 36.601383 13.95057 C 36.455365 13.801471 36.383072 13.629941 36.384342 13.435872 C 36.385786 13.215391 36.460166 13.032864 36.608101 12.889136 C 36.756043 12.744259 36.94096 12.672711 37.16259 12.674162 z M 38.509794 12.682947 C 38.621183 12.683676 38.726547 12.714968 38.826054 12.776481 C 38.925561 12.838 39.002566 12.917776 39.057048 13.015743 L 39.058598 12.726355 L 39.358321 12.728422 L 39.349019 14.149007 L 39.049296 14.147457 L 39.051363 13.864787 C 38.904118 14.078571 38.722581 14.184527 38.506694 14.183114 C 38.319514 14.181888 38.159898 14.107731 38.027653 13.959871 C 37.896556 13.81202 37.831457 13.6331 37.832833 13.422953 C 37.834133 13.22429 37.902261 13.050868 38.036438 12.903605 C 38.171771 12.7552 38.329505 12.681767 38.509794 12.682947 z M 42.433586 12.708785 C 42.63799 12.710123 42.812731 12.786324 42.957585 12.937712 C 43.102447 13.087951 43.172801 13.282816 43.168941 13.521655 L 41.956095 13.513387 C 41.981553 13.659399 42.040774 13.766453 42.133346 13.834814 C 42.227073 13.902036 42.32903 13.936412 42.43927 13.937134 C 42.609225 13.938246 42.751909 13.868339 42.867668 13.727844 L 43.085742 13.894759 C 42.920139 14.106127 42.699369 14.210756 42.423767 14.208952 C 42.212472 14.207569 42.036047 14.133916 41.8946 13.988293 C 41.753153 13.842671 41.682872 13.662498 41.684277 13.447758 C 41.685593 13.246798 41.75888 13.073424 41.903385 12.927376 C 42.049046 12.780187 42.225736 12.707424 42.433586 12.708785 z M 44.295487 12.720671 C 44.324193 12.720858 44.365626 12.728242 44.419511 12.742375 L 44.325977 13.041581 C 44.268633 13.029726 44.231177 13.023615 44.212805 13.023494 C 44.111751 13.022833 44.026373 13.057652 43.957007 13.128398 C 43.888796 13.198003 43.854346 13.285783 43.853654 13.391431 L 43.848486 14.178463 L 43.548763 14.176912 L 43.558065 12.755811 L 43.85107 12.757361 L 43.849003 13.050366 C 43.916375 12.933672 43.981878 12.849963 44.045374 12.798702 C 44.110025 12.746297 44.193284 12.720002 44.295487 12.720671 z M 51.106441 12.765629 C 51.240797 12.766509 51.390943 12.836946 51.556543 12.976986 L 51.355522 13.151135 C 51.30409 13.114051 51.259458 13.08604 51.22168 13.067419 C 51.183915 13.047652 51.138998 13.037785 51.087321 13.037447 C 50.965596 13.03665 50.904456 13.081202 50.90387 13.170772 C 50.903449 13.235078 50.979834 13.298037 51.133313 13.359908 C 51.287948 13.420635 51.398831 13.487622 51.466109 13.560413 C 51.533388 13.633201 51.567031 13.720726 51.566361 13.822929 C 51.56558 13.942356 51.516246 14.046123 51.41805 14.135055 C 51.319862 14.222838 51.204394 14.26666 51.072335 14.265796 C 50.871375 14.26448 50.707254 14.169999 50.579858 13.983126 L 50.816536 13.870988 C 50.898691 13.951913 50.984832 13.992875 51.074402 13.993461 C 51.136414 13.993867 51.190516 13.977367 51.236666 13.944368 C 51.28397 13.910224 51.307686 13.870812 51.307979 13.826029 C 51.308498 13.746794 51.227234 13.675282 51.064583 13.611056 C 50.901932 13.546829 50.789358 13.482506 50.726619 13.417786 C 50.665036 13.351928 50.634528 13.271256 50.635152 13.17594 C 50.635926 13.057661 50.680578 12.95941 50.769511 12.881901 C 50.8596 12.803252 50.972086 12.76475 51.106441 12.765629 z M 38.622965 12.966134 C 38.496648 12.965307 38.386485 13.010792 38.29172 13.102043 C 38.196954 13.193294 38.148871 13.301 38.148059 13.42502 C 38.14718 13.559377 38.192717 13.673903 38.283968 13.768669 C 38.375219 13.863434 38.485853 13.910955 38.616764 13.911812 C 38.746527 13.912662 38.85852 13.86676 38.952144 13.774353 C 39.045777 13.680798 39.092896 13.570171 39.093738 13.441557 C 39.094587 13.311794 39.048693 13.200203 38.956278 13.107727 C 38.863872 13.014102 38.752728 12.966983 38.622965 12.966134 z M 40.559281 12.971818 C 40.426074 12.970946 40.312868 13.016469 40.21925 13.107727 C 40.126789 13.197844 40.080072 13.30898 40.079207 13.44104 C 40.07838 13.567357 40.124677 13.678425 40.218217 13.774353 C 40.311764 13.869133 40.421193 13.916677 40.546362 13.917497 C 40.67957 13.918369 40.792777 13.873362 40.886393 13.782104 C 40.980011 13.690846 41.027122 13.5793 41.027987 13.447241 C 41.028821 13.319775 40.983451 13.209103 40.891044 13.115479 C 40.798645 13.020706 40.687896 12.97266 40.559281 12.971818 z M 42.431519 12.98422 C 42.225966 12.982875 42.078351 13.079486 41.988652 13.274125 L 42.856816 13.27981 C 42.761633 13.08396 42.619846 12.985453 42.431519 12.98422 z " /></g><style
     type="text/css"
     id="style1">
*[layerid=&quot;1&quot;] {stroke:#000000;fill:#000000;}
*[layerid=&quot;2&quot;] {stroke:#000000;fill:#000000;}
*[layerid=&quot;3&quot;] {stroke:#000000;fill:#000000;}
*[layerid=&quot;4&quot;] {stroke:#000000;fill:#000000;}
*[layerid=&quot;5&quot;] {stroke:#000000;fill:#000000;}
*[layerid=&quot;6&quot;] {stroke:#000000;fill:#000000;}
*[layerid=&quot;7&quot;] {stroke:#000000;fill:#000000;}
*[layerid=&quot;8&quot;] {stroke:#000000;fill:#000000;}
*[layerid=&quot;9&quot;] {stroke:#000000;fill:#000000;}
*[layerid=&quot;10&quot;] {stroke:#000000;fill:#000000;}
*[layerid=&quot;11&quot;] {stroke:#000000;fill:#000000;}
*[layerid=&quot;12&quot;] {stroke:#000000;fill:#000000;}
*[layerid=&quot;13&quot;] {stroke:#000000;fill:#000000;}
*[layerid=&quot;14&quot;] {stroke:#000000;fill:#000000;}
*[layerid=&quot;15&quot;] {stroke:#000000;fill:#000000;}
*[layerid=&quot;19&quot;] {stroke:#000000;fill:#000000;}
*[layerid=&quot;21&quot;] {stroke:#000000;fill:#000000;}
*[layerid=&quot;22&quot;] {stroke:#000000;fill:#000000;}
*[layerid=&quot;23&quot;] {stroke:#000000;fill:#000000;}
*[layerid=&quot;24&quot;] {stroke:#000000;fill:#000000;}
*[layerid=&quot;25&quot;] {stroke:#000000;fill:#000000;}
*[layerid=&quot;26&quot;] {stroke:#000000;fill:#000000;}
*[layerid=&quot;27&quot;] {stroke:#000000;fill:#000000;}
*[layerid=&quot;28&quot;] {stroke:#000000;fill:#000000;}
*[layerid=&quot;29&quot;] {stroke:#000000;fill:#000000;}
*[layerid=&quot;30&quot;] {stroke:#000000;fill:#000000;}
*[layerid=&quot;31&quot;] {stroke:#000000;fill:#000000;}
*[layerid=&quot;32&quot;] {stroke:#000000;fill:#000000;}
*[layerid=&quot;33&quot;] {stroke:#000000;fill:#000000;}
*[layerid=&quot;34&quot;] {stroke:#000000;fill:#000000;}
*[layerid=&quot;35&quot;] {stroke:#000000;fill:#000000;}
*[layerid=&quot;36&quot;] {stroke:#000000;fill:#000000;}
*[layerid=&quot;37&quot;] {stroke:#000000;fill:#000000;}
*[layerid=&quot;38&quot;] {stroke:#000000;fill:#000000;}
*[layerid=&quot;39&quot;] {stroke:#000000;fill:#000000;}
*[layerid=&quot;40&quot;] {stroke:#000000;fill:#000000;}
*[layerid=&quot;41&quot;] {stroke:#000000;fill:#000000;}
*[layerid=&quot;42&quot;] {stroke:#000000;fill:#000000;}
*[layerid=&quot;43&quot;] {stroke:#000000;fill:#000000;}
*[layerid=&quot;44&quot;] {stroke:#000000;fill:#000000;}
*[layerid=&quot;45&quot;] {stroke:#000000;fill:#000000;}
*[layerid=&quot;46&quot;] {stroke:#000000;fill:#000000;}
*[layerid=&quot;47&quot;] {stroke:#000000;fill:#000000;}
*[layerid=&quot;48&quot;] {stroke:#000000;fill:#000000;}
*[layerid=&quot;49&quot;] {stroke:#000000;fill:#000000;}
*[layerid=&quot;50&quot;] {stroke:#000000;fill:#000000;}
*[layerid=&quot;51&quot;] {stroke:#000000;fill:#000000;}
*[layerid=&quot;52&quot;] {stroke:#000000;fill:#000000;}
*[layerid=&quot;99&quot;] {stroke:#000000;fill:#000000;}
*[layerid=&quot;100&quot;] {stroke:#000000;fill:#000000;}
*[layerid=&quot;101&quot;] {stroke:#000000;fill:#000000;}
*[layerid=&quot;Hole&quot;] {stroke:#000000;fill:#000000;}
*[layerid=&quot;DRCError&quot;] {stroke:#000000;fill:#000000;}
*[fill=&quot;none&quot;] {fill: none;}
*[stroke=&quot;none&quot;] {stroke: none;}
path, polyline, polygon, line {stroke-linecap:round;}
g[c_partid=&quot;part_pad&quot;][layerid=&quot;1&quot;] ellipse:not([c_etype=&quot;pad_outer&quot;]) {fill:#000000;}
g[c_partid=&quot;part_pad&quot;][layerid=&quot;1&quot;] polygon:not([c_etype=&quot;pad_outer&quot;]) {fill:#000000;}
g[c_partid=&quot;part_pad&quot;][layerid=&quot;1&quot;] polyline:not([c_etype=&quot;pad_outer&quot;]) {stroke:#000000;}
g[c_partid=&quot;part_pad&quot;][layerid=&quot;2&quot;] ellipse:not([c_etype=&quot;pad_outer&quot;]) {fill:#000000;}
g[c_partid=&quot;part_pad&quot;][layerid=&quot;2&quot;] polygon:not([c_etype=&quot;pad_outer&quot;]) {fill:#000000;}
g[c_partid=&quot;part_pad&quot;][layerid=&quot;2&quot;] polyline:not([c_etype=&quot;pad_outer&quot;]) {stroke:#000000;}
g[c_partid=&quot;part_pad&quot;][layerid=&quot;11&quot;] ellipse:not([c_etype=&quot;pad_outer&quot;]) {fill:#000000;}
g[c_partid=&quot;part_pad&quot;][layerid=&quot;11&quot;] polygon:not([c_etype=&quot;pad_outer&quot;]) {fill:#000000;}
g[c_partid=&quot;part_pad&quot;][layerid=&quot;11&quot;] polyline:not([c_etype=&quot;pad_outer&quot;]) {stroke:#000000;}
g[c_partid=&quot;part_pad&quot;][layerid=&quot;11&quot;] circle {fill:#FFFFFF;}
g[c_partid=&quot;part_pad&quot;][layerid=&quot;11&quot;] &gt; polyline:nth-of-type(2) {stroke:#FFFFFF;}
g[c_partid=&quot;part_pad&quot;][layerid=&quot;11&quot;][c_shape=&quot;ELLIPSE&quot;]  polyline:nth-last-of-type(1) {stroke:#FFFFFF;}
g[c_partid=&quot;part_pad&quot;][layerid=&quot;11&quot;][c_shape=&quot;RECT&quot;]  polyline:nth-last-of-type(1) {stroke:#FFFFFF;}
g[c_partid=&quot;part_pad&quot;][layerid=&quot;11&quot;][c_shape=&quot;POLYGON&quot;]  polyline:nth-last-of-type(1) {stroke:#FFFFFF;}
g[c_partid=&quot;part_via&quot;] &gt; * + circle, #gCurParts g[c_partid=&quot;part_via&quot;] &gt; * + circle {fill:#FFFFFF;}
g[c_partid=&quot;part_pad&quot;] &gt; polygon[c_etype=&quot;pad_outer&quot;], #gCurParts g[c_partid=&quot;part_pad&quot;] &gt; polygon[c_etype=&quot;pad_outer&quot;] {stroke-linejoin: round;stroke-miterlimit: 100;}
g[c_partid=&quot;part_hole&quot;] &gt; circle {fill: #FFFFFF;}path, polyline, polygon {stroke-linejoin:round;}
rect, circle, ellipse, polyline, line, polygon, path {shape-rendering:crispEdges;}
</style></svg>
