<?xml version="1.0" encoding="UTF-8" standalone="no"?>
<!-- Created with Inkscape (http://www.inkscape.org/) -->

<svg
   width="210mm"
   height="297mm"
   viewBox="0 0 210 297"
   version="1.1"
   id="svg1"
   xml:space="preserve"
   inkscape:export-filename="..\..\..\..\..\..\..\home\rob\rdev\HomeAutomation\ScaderESP32\pcbs\Scader LEDs\PCB Legend\Scader LEDs PCB Legend.svg"
   inkscape:export-xdpi="150"
   inkscape:export-ydpi="150"
   inkscape:version="1.3.2 (091e20e, 2023-11-25, custom)"
   sodipodi:docname="20241210 PCB Legends.svg"
   xmlns:inkscape="http://www.inkscape.org/namespaces/inkscape"
   xmlns:sodipodi="http://sodipodi.sourceforge.net/DTD/sodipodi-0.dtd"
   xmlns="http://www.w3.org/2000/svg"
   xmlns:svg="http://www.w3.org/2000/svg"><sodipodi:namedview
     id="namedview1"
     pagecolor="#727272"
     bordercolor="#000000"
     borderopacity="0.25"
     inkscape:showpageshadow="2"
     inkscape:pageopacity="0.0"
     inkscape:pagecheckerboard="0"
     inkscape:deskcolor="#7e7e7e"
     inkscape:document-units="mm"
     inkscape:zoom="2.375014"
     inkscape:cx="357.89262"
     inkscape:cy="273.05102"
     inkscape:window-width="3840"
     inkscape:window-height="1529"
     inkscape:window-x="2552"
     inkscape:window-y="-8"
     inkscape:window-maximized="1"
     inkscape:current-layer="layer1" /><defs
     id="defs1" /><g
     inkscape:label="Layer 1"
     inkscape:groupmode="layer"
     id="layer1"><path
       id="rect1-0"
       style="fill:#ffffff;stroke-width:0.264583;shape-rendering:crispEdges"
       d="m 34.241321,10.67015 c -0.461503,0 -0.833024,0.32356 -0.833024,0.726054 v 3.308325 c 0,0.402493 0.371521,0.72657 0.833024,0.72657 h 17.663004 c 0.461502,0 0.833024,-0.324077 0.833024,-0.72657 v -3.308325 c 0,-0.402494 -0.371522,-0.726054 -0.833024,-0.726054 z m 1.204061,1.188558 c 0.119427,7.81e-4 0.240234,0.0271 0.362768,0.07958 0.122534,0.05248 0.224567,0.132045 0.305408,0.238229 l -0.24443,0.192753 c -0.06387,-0.06703 -0.122051,-0.116847 -0.174666,-0.149345 -0.05145,-0.03364 -0.126549,-0.05051 -0.225309,-0.05116 -0.107944,-7.06e-4 -0.195991,0.02341 -0.264067,0.07235 -0.06692,0.0478 -0.100782,0.110132 -0.101286,0.187069 -4.36e-4,0.06661 0.02859,0.125709 0.08682,0.177767 0.05823,0.05091 0.157842,0.107711 0.29869,0.169499 0.140854,0.06064 0.250403,0.117195 0.328145,0.170532 0.0789,0.0522 0.143156,0.110147 0.19327,0.173633 0.05011,0.06349 0.08693,0.130298 0.110587,0.200504 0.02481,0.07022 0.0372,0.144639 0.03669,0.222726 -0.0012,0.182586 -0.06904,0.337345 -0.203089,0.465088 -0.132901,0.127749 -0.293296,0.191402 -0.481624,0.190169 -0.183735,-0.0012 -0.3462,-0.05213 -0.486792,-0.152962 -0.139436,-0.101972 -0.246436,-0.253814 -0.320911,-0.45527 l 0.30024,-0.08268 c 0.107476,0.247607 0.27412,0.372147 0.499195,0.37362 0.109092,7.15e-4 0.200077,-0.03114 0.272851,-0.09612 0.07277,-0.06498 0.109417,-0.147627 0.110071,-0.24753 3.91e-4,-0.05971 -0.01831,-0.119354 -0.05581,-0.179317 -0.03749,-0.06111 -0.08403,-0.11148 -0.140044,-0.150895 -0.05601,-0.03941 -0.14605,-0.08417 -0.269751,-0.134359 -0.122541,-0.05133 -0.216853,-0.09775 -0.283186,-0.139526 -0.06518,-0.04292 -0.121647,-0.09368 -0.169499,-0.151412 -0.04785,-0.05888 -0.08335,-0.1171 -0.105937,-0.174667 -0.02144,-0.05756 -0.03195,-0.119031 -0.03152,-0.184484 0.001,-0.157323 0.0652,-0.290562 0.192236,-0.399976 0.127047,-0.110562 0.280664,-0.164995 0.460954,-0.163814 z m 5.558317,0.06563 0.296106,0.0015 -0.01447,2.236039 -0.293005,-0.0021 0.0021,-0.296106 c -0.142712,0.223002 -0.328036,0.333776 -0.556555,0.33228 -0.184883,-0.0012 -0.343301,-0.07631 -0.47439,-0.22531 -0.131089,-0.149 -0.195664,-0.327517 -0.194303,-0.535367 0.0013,-0.203256 0.06985,-0.37749 0.205155,-0.522449 0.135318,-0.146109 0.295593,-0.218259 0.481625,-0.217041 0.111388,7.29e-4 0.215037,0.03244 0.311092,0.09508 0.09605,0.06264 0.17268,0.144149 0.229443,0.244429 z m 4.740279,0.07235 0.296106,0.0015 -0.0124,1.898592 0.714686,0.0047 -0.0016,0.296106 -1.011308,-0.0067 z m 1.289844,0.0083 1.216463,0.0078 -0.0021,0.299724 -0.919841,-0.0057 -0.0036,0.547771 0.91984,0.0057 -0.0021,0.296623 -0.91984,-0.0062 -0.0047,0.754476 0.91984,0.0062 -0.0021,0.296106 -1.215946,-0.0078 z m 1.57303,0.01034 0.532267,0.0036 c 0.421441,0.0028 0.733833,0.115907 0.937928,0.340031 0.204094,0.224123 0.305212,0.479391 0.30334,0.765328 -0.0019,0.288233 -0.1096,0.542505 -0.323494,0.762744 -0.213893,0.220239 -0.523778,0.328732 -0.929142,0.326078 l -0.535368,-0.0031 z m 0.297656,0.294556 -0.01033,1.605587 h 0.01705 c 0.222779,0.0015 0.390664,-0.0071 0.503329,-0.02584 0.112672,-0.01994 0.219413,-0.06365 0.32091,-0.130741 0.101498,-0.06709 0.182437,-0.156169 0.24288,-0.267167 0.06045,-0.112147 0.0911,-0.235131 0.09198,-0.369487 0.0011,-0.168806 -0.04563,-0.322127 -0.140043,-0.459403 -0.09442,-0.137276 -0.207649,-0.229548 -0.340548,-0.277502 -0.131751,-0.04794 -0.309891,-0.07295 -0.533818,-0.07442 z M 37.16259,12.674162 c 0.132059,8.64e-4 0.26808,0.03612 0.407727,0.105936 l -0.0021,0.334347 C 37.418448,13.017 37.276275,12.96753 37.141919,12.96665 c -0.124021,-8.11e-4 -0.233009,0.04253 -0.326595,0.129191 -0.09359,0.08667 -0.140827,0.188277 -0.141594,0.305408 -8.64e-4,0.132059 0.042,0.24409 0.128675,0.33538 0.08669,0.09014 0.19356,0.135599 0.319877,0.136426 0.128614,8.42e-4 0.275721,-0.05575 0.441833,-0.169499 l -0.0021,0.342615 c -0.1533,0.08627 -0.301908,0.129097 -0.445451,0.128158 -0.196366,-0.0013 -0.36804,-0.0758 -0.515214,-0.223759 -0.146018,-0.149099 -0.218311,-0.320629 -0.217041,-0.514698 0.0014,-0.220481 0.07582,-0.403008 0.223759,-0.546736 0.147942,-0.144877 0.332859,-0.216425 0.554489,-0.214974 z m 1.347204,0.0088 c 0.111389,7.29e-4 0.216753,0.03202 0.31626,0.09353 0.09951,0.06152 0.176512,0.141295 0.230994,0.239262 l 0.0016,-0.289388 0.299723,0.0021 -0.0093,1.420585 -0.299723,-0.0015 0.0021,-0.28267 c -0.147245,0.213784 -0.328782,0.31974 -0.544669,0.318327 -0.18718,-0.0012 -0.346796,-0.07538 -0.479041,-0.223243 -0.131097,-0.147851 -0.196196,-0.326771 -0.19482,-0.536918 0.0013,-0.198663 0.06943,-0.372085 0.203605,-0.519348 0.135333,-0.148405 0.293067,-0.221838 0.473356,-0.220658 z m 3.923792,0.02584 c 0.204404,0.0013 0.379145,0.07754 0.523999,0.228927 0.144862,0.150239 0.215216,0.345104 0.211356,0.583943 l -1.212846,-0.0083 c 0.02546,0.146012 0.08468,0.253066 0.177251,0.321427 0.09373,0.06722 0.195684,0.101598 0.305924,0.10232 0.169955,0.0011 0.312639,-0.06879 0.428398,-0.20929 l 0.218074,0.166915 c -0.165603,0.211368 -0.386373,0.315997 -0.661975,0.314193 -0.211295,-0.0014 -0.38772,-0.07504 -0.529167,-0.220659 -0.141447,-0.145622 -0.211728,-0.325795 -0.210323,-0.540535 0.0013,-0.20096 0.0746,-0.374334 0.219108,-0.520382 0.145661,-0.147189 0.322351,-0.219952 0.530201,-0.218591 z m 1.861901,0.01189 c 0.02871,1.87e-4 0.07014,0.0076 0.124024,0.0217 l -0.09353,0.299206 c -0.05734,-0.01186 -0.0948,-0.01797 -0.113172,-0.01809 -0.101054,-6.61e-4 -0.186432,0.03416 -0.255798,0.104904 -0.06821,0.0696 -0.102661,0.157385 -0.103353,0.263033 l -0.0052,0.787032 -0.299723,-0.0016 0.0093,-1.421101 0.293005,0.0015 -0.0021,0.293005 c 0.06737,-0.116694 0.132875,-0.200403 0.196371,-0.251664 0.06465,-0.05241 0.14791,-0.0787 0.250113,-0.07803 z m 6.810954,0.04496 c 0.134356,8.8e-4 0.284502,0.07132 0.450102,0.211357 l -0.201021,0.174149 c -0.05143,-0.03708 -0.09606,-0.06509 -0.133842,-0.08372 -0.03777,-0.01977 -0.08268,-0.02963 -0.134359,-0.02997 -0.121725,-7.97e-4 -0.182865,0.04375 -0.183451,0.133325 -4.21e-4,0.06431 0.07596,0.127265 0.229443,0.189136 0.154635,0.06073 0.265518,0.127714 0.332796,0.200505 0.06728,0.07279 0.100922,0.160313 0.100252,0.262516 -7.81e-4,0.119427 -0.05011,0.223194 -0.148311,0.312126 -0.09819,0.08778 -0.213656,0.131605 -0.345715,0.130741 -0.20096,-0.0013 -0.365081,-0.0958 -0.492477,-0.28267 l 0.236678,-0.112138 c 0.08216,0.08092 0.168296,0.121887 0.257866,0.122473 0.06201,4.06e-4 0.116114,-0.01609 0.162264,-0.04909 0.0473,-0.03414 0.07102,-0.07356 0.07131,-0.118339 5.19e-4,-0.07924 -0.08075,-0.150747 -0.243396,-0.214973 -0.162651,-0.06423 -0.275225,-0.12855 -0.337964,-0.19327 -0.06158,-0.06586 -0.09209,-0.14653 -0.09147,-0.241846 7.74e-4,-0.118279 0.04543,-0.21653 0.134359,-0.294039 0.09009,-0.07865 0.202575,-0.117151 0.33693,-0.116272 z m -12.483476,0.200505 c -0.126317,-8.27e-4 -0.23648,0.04466 -0.331245,0.135909 -0.09477,0.09125 -0.142849,0.198957 -0.143661,0.322977 -8.79e-4,0.134357 0.04466,0.248883 0.135909,0.343649 0.09125,0.09477 0.201885,0.142286 0.332796,0.143143 0.129763,8.5e-4 0.241756,-0.04505 0.33538,-0.137459 0.09363,-0.09356 0.140752,-0.204182 0.141594,-0.332796 8.49e-4,-0.129763 -0.04505,-0.241354 -0.13746,-0.33383 -0.09241,-0.09363 -0.20355,-0.140744 -0.333313,-0.141593 z m 1.936316,0.0057 c -0.133207,-8.72e-4 -0.246413,0.04465 -0.340031,0.135909 -0.09246,0.09012 -0.139178,0.201253 -0.140043,0.333313 -8.27e-4,0.126317 0.04547,0.237385 0.13901,0.333313 0.09355,0.09478 0.202976,0.142324 0.328145,0.143144 0.133208,8.72e-4 0.246415,-0.04413 0.340031,-0.135393 0.09362,-0.09126 0.140729,-0.202804 0.141594,-0.334863 8.34e-4,-0.127466 -0.04454,-0.238138 -0.136943,-0.331762 -0.0924,-0.09477 -0.203148,-0.142819 -0.331763,-0.143661 z m 1.872238,0.0124 c -0.205553,-0.0013 -0.353168,0.09527 -0.442867,0.289905 l 0.868164,0.0057 c -0.09518,-0.19585 -0.23697,-0.294357 -0.425297,-0.29559 z" /></g><style
     type="text/css"
     id="style1">
*[layerid=&quot;1&quot;] {stroke:#000000;fill:#000000;}
*[layerid=&quot;2&quot;] {stroke:#000000;fill:#000000;}
*[layerid=&quot;3&quot;] {stroke:#000000;fill:#000000;}
*[layerid=&quot;4&quot;] {stroke:#000000;fill:#000000;}
*[layerid=&quot;5&quot;] {stroke:#000000;fill:#000000;}
*[layerid=&quot;6&quot;] {stroke:#000000;fill:#000000;}
*[layerid=&quot;7&quot;] {stroke:#000000;fill:#000000;}
*[layerid=&quot;8&quot;] {stroke:#000000;fill:#000000;}
*[layerid=&quot;9&quot;] {stroke:#000000;fill:#000000;}
*[layerid=&quot;10&quot;] {stroke:#000000;fill:#000000;}
*[layerid=&quot;11&quot;] {stroke:#000000;fill:#000000;}
*[layerid=&quot;12&quot;] {stroke:#000000;fill:#000000;}
*[layerid=&quot;13&quot;] {stroke:#000000;fill:#000000;}
*[layerid=&quot;14&quot;] {stroke:#000000;fill:#000000;}
*[layerid=&quot;15&quot;] {stroke:#000000;fill:#000000;}
*[layerid=&quot;19&quot;] {stroke:#000000;fill:#000000;}
*[layerid=&quot;21&quot;] {stroke:#000000;fill:#000000;}
*[layerid=&quot;22&quot;] {stroke:#000000;fill:#000000;}
*[layerid=&quot;23&quot;] {stroke:#000000;fill:#000000;}
*[layerid=&quot;24&quot;] {stroke:#000000;fill:#000000;}
*[layerid=&quot;25&quot;] {stroke:#000000;fill:#000000;}
*[layerid=&quot;26&quot;] {stroke:#000000;fill:#000000;}
*[layerid=&quot;27&quot;] {stroke:#000000;fill:#000000;}
*[layerid=&quot;28&quot;] {stroke:#000000;fill:#000000;}
*[layerid=&quot;29&quot;] {stroke:#000000;fill:#000000;}
*[layerid=&quot;30&quot;] {stroke:#000000;fill:#000000;}
*[layerid=&quot;31&quot;] {stroke:#000000;fill:#000000;}
*[layerid=&quot;32&quot;] {stroke:#000000;fill:#000000;}
*[layerid=&quot;33&quot;] {stroke:#000000;fill:#000000;}
*[layerid=&quot;34&quot;] {stroke:#000000;fill:#000000;}
*[layerid=&quot;35&quot;] {stroke:#000000;fill:#000000;}
*[layerid=&quot;36&quot;] {stroke:#000000;fill:#000000;}
*[layerid=&quot;37&quot;] {stroke:#000000;fill:#000000;}
*[layerid=&quot;38&quot;] {stroke:#000000;fill:#000000;}
*[layerid=&quot;39&quot;] {stroke:#000000;fill:#000000;}
*[layerid=&quot;40&quot;] {stroke:#000000;fill:#000000;}
*[layerid=&quot;41&quot;] {stroke:#000000;fill:#000000;}
*[layerid=&quot;42&quot;] {stroke:#000000;fill:#000000;}
*[layerid=&quot;43&quot;] {stroke:#000000;fill:#000000;}
*[layerid=&quot;44&quot;] {stroke:#000000;fill:#000000;}
*[layerid=&quot;45&quot;] {stroke:#000000;fill:#000000;}
*[layerid=&quot;46&quot;] {stroke:#000000;fill:#000000;}
*[layerid=&quot;47&quot;] {stroke:#000000;fill:#000000;}
*[layerid=&quot;48&quot;] {stroke:#000000;fill:#000000;}
*[layerid=&quot;49&quot;] {stroke:#000000;fill:#000000;}
*[layerid=&quot;50&quot;] {stroke:#000000;fill:#000000;}
*[layerid=&quot;51&quot;] {stroke:#000000;fill:#000000;}
*[layerid=&quot;52&quot;] {stroke:#000000;fill:#000000;}
*[layerid=&quot;99&quot;] {stroke:#000000;fill:#000000;}
*[layerid=&quot;100&quot;] {stroke:#000000;fill:#000000;}
*[layerid=&quot;101&quot;] {stroke:#000000;fill:#000000;}
*[layerid=&quot;Hole&quot;] {stroke:#000000;fill:#000000;}
*[layerid=&quot;DRCError&quot;] {stroke:#000000;fill:#000000;}
*[fill=&quot;none&quot;] {fill: none;}
*[stroke=&quot;none&quot;] {stroke: none;}
path, polyline, polygon, line {stroke-linecap:round;}
g[c_partid=&quot;part_pad&quot;][layerid=&quot;1&quot;] ellipse:not([c_etype=&quot;pad_outer&quot;]) {fill:#000000;}
g[c_partid=&quot;part_pad&quot;][layerid=&quot;1&quot;] polygon:not([c_etype=&quot;pad_outer&quot;]) {fill:#000000;}
g[c_partid=&quot;part_pad&quot;][layerid=&quot;1&quot;] polyline:not([c_etype=&quot;pad_outer&quot;]) {stroke:#000000;}
g[c_partid=&quot;part_pad&quot;][layerid=&quot;2&quot;] ellipse:not([c_etype=&quot;pad_outer&quot;]) {fill:#000000;}
g[c_partid=&quot;part_pad&quot;][layerid=&quot;2&quot;] polygon:not([c_etype=&quot;pad_outer&quot;]) {fill:#000000;}
g[c_partid=&quot;part_pad&quot;][layerid=&quot;2&quot;] polyline:not([c_etype=&quot;pad_outer&quot;]) {stroke:#000000;}
g[c_partid=&quot;part_pad&quot;][layerid=&quot;11&quot;] ellipse:not([c_etype=&quot;pad_outer&quot;]) {fill:#000000;}
g[c_partid=&quot;part_pad&quot;][layerid=&quot;11&quot;] polygon:not([c_etype=&quot;pad_outer&quot;]) {fill:#000000;}
g[c_partid=&quot;part_pad&quot;][layerid=&quot;11&quot;] polyline:not([c_etype=&quot;pad_outer&quot;]) {stroke:#000000;}
g[c_partid=&quot;part_pad&quot;][layerid=&quot;11&quot;] circle {fill:#FFFFFF;}
g[c_partid=&quot;part_pad&quot;][layerid=&quot;11&quot;] &gt; polyline:nth-of-type(2) {stroke:#FFFFFF;}
g[c_partid=&quot;part_pad&quot;][layerid=&quot;11&quot;][c_shape=&quot;ELLIPSE&quot;]  polyline:nth-last-of-type(1) {stroke:#FFFFFF;}
g[c_partid=&quot;part_pad&quot;][layerid=&quot;11&quot;][c_shape=&quot;RECT&quot;]  polyline:nth-last-of-type(1) {stroke:#FFFFFF;}
g[c_partid=&quot;part_pad&quot;][layerid=&quot;11&quot;][c_shape=&quot;POLYGON&quot;]  polyline:nth-last-of-type(1) {stroke:#FFFFFF;}
g[c_partid=&quot;part_via&quot;] &gt; * + circle, #gCurParts g[c_partid=&quot;part_via&quot;] &gt; * + circle {fill:#FFFFFF;}
g[c_partid=&quot;part_pad&quot;] &gt; polygon[c_etype=&quot;pad_outer&quot;], #gCurParts g[c_partid=&quot;part_pad&quot;] &gt; polygon[c_etype=&quot;pad_outer&quot;] {stroke-linejoin: round;stroke-miterlimit: 100;}
g[c_partid=&quot;part_hole&quot;] &gt; circle {fill: #FFFFFF;}path, polyline, polygon {stroke-linejoin:round;}
rect, circle, ellipse, polyline, line, polygon, path {shape-rendering:crispEdges;}
</style></svg>
