<?xml version="1.0" encoding="UTF-8" standalone="no"?>
<!-- Created with Inkscape (http://www.inkscape.org/) -->

<svg
   width="210mm"
   height="297mm"
   viewBox="0 0 210 297"
   version="1.1"
   id="svg1"
   xml:space="preserve"
   inkscape:export-filename="Alt5V with circles.svg"
   inkscape:export-xdpi="150"
   inkscape:export-ydpi="150"
   inkscape:version="1.3 (0e150ed6c4, 2023-07-21)"
   sodipodi:docname="20260115 Scader Leds Legend.svg"
   xmlns:inkscape="http://www.inkscape.org/namespaces/inkscape"
   xmlns:sodipodi="http://sodipodi.sourceforge.net/DTD/sodipodi-0.dtd"
   xmlns="http://www.w3.org/2000/svg"
   xmlns:svg="http://www.w3.org/2000/svg"><sodipodi:namedview
     id="namedview1"
     pagecolor="#727272"
     bordercolor="#000000"
     borderopacity="0.25"
     inkscape:showpageshadow="2"
     inkscape:pageopacity="0.0"
     inkscape:pagecheckerboard="0"
     inkscape:deskcolor="#7e7e7e"
     inkscape:document-units="mm"
     inkscape:zoom="4"
     inkscape:cx="97.125"
     inkscape:cy="114.875"
     inkscape:window-width="1920"
     inkscape:window-height="1009"
     inkscape:window-x="-8"
     inkscape:window-y="-8"
     inkscape:window-maximized="1"
     inkscape:current-layer="layer1"
     showgrid="false" /><defs
     id="defs1" /><g
     inkscape:groupmode="layer"
     id="layer2"
     inkscape:label="Layer 2"
     style="display:inline" /><g
     inkscape:label="Layer 1"
     inkscape:groupmode="layer"
     id="layer1"><rect
       style="fill:#ffffff;fill-opacity:0.997396;stroke-width:0.07"
       id="rect178195"
       width="18.047258"
       height="3.7026484"
       x="12.66541"
       y="11.815518"
       rx="0.82524502"
       ry="0.85496867" /><rect
       style="fill:#ffffff;fill-opacity:0.997396;stroke-width:0.07;shape-rendering:crispEdges"
       id="rect178195-3"
       width="11.363088"
       height="2.644321"
       x="12.805219"
       y="16.427336"
       rx="0.71384215"
       ry="0.74356627" /><text
       xml:space="preserve"
       style="font-size:3.52778px;line-height:0.8;font-family:Calibri;-inkscape-font-specification:'Calibri, Normal';fill:#000000;fill-opacity:1;stroke:none;stroke-width:2.64599;stroke-opacity:1"
       x="21.810146"
       y="14.527739"
       id="text2-6-5-7-5-1-8-9-8-7-4-0-1"
       transform="rotate(0.375064)"><tspan
         sodipodi:role="line"
         style="font-style:normal;font-variant:normal;font-weight:normal;font-stretch:normal;font-size:3.52778px;line-height:0.8;font-family:'Tw Cen MT';-inkscape-font-specification:'Tw Cen MT, Normal';font-variant-ligatures:normal;font-variant-caps:normal;font-variant-numeric:normal;font-variant-east-asian:normal;text-align:center;text-anchor:middle;fill:#000000;fill-opacity:1;stroke:none;stroke-width:2.646;stroke-opacity:1"
         x="21.810146"
         y="14.527739"
         id="tspan1-4-5-7-2-0">Scader LEDs</tspan></text><text
       xml:space="preserve"
       style="font-size:2.11667px;line-height:0.8;font-family:Calibri;-inkscape-font-specification:'Calibri, Normal';fill:#000000;fill-opacity:1;stroke:none;stroke-width:2.64599;stroke-opacity:1"
       x="18.60001"
       y="18.243338"
       id="text2-6-5-7-5-1-8-9-8-7-7-5-9-1"
       transform="rotate(0.375064)"><tspan
         sodipodi:role="line"
         style="font-style:normal;font-variant:normal;font-weight:normal;font-stretch:normal;font-size:2.11667px;line-height:0.8;font-family:'Tw Cen MT';-inkscape-font-specification:'Tw Cen MT, Normal';font-variant-ligatures:normal;font-variant-caps:normal;font-variant-numeric:normal;font-variant-east-asian:normal;text-align:center;text-anchor:middle;fill:#000000;fill-opacity:1;stroke:none;stroke-width:2.646;stroke-opacity:1"
         x="18.60001"
         y="18.243338"
         id="tspan1-4-5-2-0-3-6">Rob Dobson</tspan></text><circle
       style="fill:#000000;fill-opacity:1;stroke:#ffffff;stroke-width:1.32299;stroke-opacity:1;shape-rendering:crispEdges"
       id="path5-21"
       cx="28.988853"
       cy="21.804413"
       r="0.63018966" /><text
       xml:space="preserve"
       style="font-style:normal;font-variant:normal;font-weight:normal;font-stretch:normal;font-size:2.82223px;line-height:0.8;font-family:'Tw Cen MT';-inkscape-font-specification:'Tw Cen MT, Normal';font-variant-ligatures:normal;font-variant-caps:normal;font-variant-numeric:normal;font-variant-east-asian:normal;text-align:center;text-anchor:middle;fill:#000000;fill-opacity:1;stroke:none;stroke-width:2.64599;stroke-opacity:1"
       x="29.067635"
       y="22.710312"
       id="text6-2"><tspan
         sodipodi:role="line"
         id="tspan6-8"
         style="fill:#000000;fill-opacity:1;stroke:none;stroke-width:2.646;stroke-opacity:1"
         x="29.067635"
         y="22.710312">+</tspan></text><circle
       style="fill:#000000;fill-opacity:1;stroke:#ffffff;stroke-width:1.32299;stroke-opacity:1;shape-rendering:crispEdges"
       id="path5-1-6"
       cx="26.356903"
       cy="21.776558"
       r="0.63018966" /><text
       xml:space="preserve"
       style="font-style:normal;font-variant:normal;font-weight:normal;font-stretch:normal;font-size:3.7465px;line-height:0.8;font-family:'Tw Cen MT';-inkscape-font-specification:'Tw Cen MT, Normal';font-variant-ligatures:normal;font-variant-caps:normal;font-variant-numeric:normal;font-variant-east-asian:normal;text-align:center;text-anchor:middle;fill:#000000;fill-opacity:1;stroke:none;stroke-width:3.51254;stroke-opacity:1"
       x="19.866755"
       y="29.704166"
       id="text6-0-0"
       transform="scale(1.3274953,0.75329833)"><tspan
         sodipodi:role="line"
         id="tspan6-7-0"
         style="fill:#000000;fill-opacity:1;stroke:none;stroke-width:3.51255;stroke-opacity:1"
         x="19.866755"
         y="29.704166">-</tspan></text><rect
       style="fill:#ffffff;fill-opacity:1;stroke:none;stroke-width:1.28599;stroke-opacity:1;shape-rendering:crispEdges"
       id="rect1-5-7-3-8-0-8-3-47"
       width="7.0146704"
       height="2.73101"
       x="12.972188"
       y="20.145559"
       ry="0.84335917"
       rx="0.78707886" /><text
       xml:space="preserve"
       style="font-size:2.11667px;line-height:0.8;font-family:Calibri;-inkscape-font-specification:'Calibri, Normal';fill:#000000;fill-opacity:1;stroke:none;stroke-width:2.64599;stroke-opacity:1"
       x="16.336836"
       y="22.15517"
       id="text2-6-5-7-3-1-7-6-2"><tspan
         sodipodi:role="line"
         style="font-style:normal;font-variant:normal;font-weight:normal;font-stretch:normal;font-size:2.11667px;line-height:0.8;font-family:'Tw Cen MT';-inkscape-font-specification:'Tw Cen MT, Normal';font-variant-ligatures:normal;font-variant-caps:normal;font-variant-numeric:normal;font-variant-east-asian:normal;text-align:center;text-anchor:middle;fill:#000000;fill-opacity:1;stroke:none;stroke-width:2.646;stroke-opacity:1"
         x="16.336836"
         y="22.15517"
         id="tspan11-1-6-9-4-6-2"
         dx="0 0 -0.23999999"><tspan
   style="letter-spacing:-0.238125px"
   id="tspan21-8-2-3-9"
   dx="0.23999999">QW</tspan>/ST</tspan></text><rect
       style="fill:#ffffff;fill-opacity:1;stroke:none;stroke-width:1.28599;stroke-opacity:1;shape-rendering:crispEdges"
       id="rect1-5-7-3-8-0-8-3-47-6"
       width="4.288187"
       height="2.3204374"
       x="15.13168"
       y="38.464859"
       ry="0.69453275"
       rx="0.63825071" /><text
       xml:space="preserve"
       style="font-size:2.11667px;line-height:0.8;font-family:Calibri;-inkscape-font-specification:'Calibri, Normal';fill:#000000;fill-opacity:1;stroke:none;stroke-width:2.64599;stroke-opacity:1"
       x="17.233479"
       y="40.33934"
       id="text2-6-5-7-3-1-7-6-2-4"><tspan
         sodipodi:role="line"
         style="font-style:normal;font-variant:normal;font-weight:normal;font-stretch:normal;font-size:2.11667px;line-height:0.8;font-family:'Tw Cen MT';-inkscape-font-specification:'Tw Cen MT, Normal';font-variant-ligatures:normal;font-variant-caps:normal;font-variant-numeric:normal;font-variant-east-asian:normal;text-align:center;text-anchor:middle;fill:#000000;fill-opacity:1;stroke:none;stroke-width:2.646;stroke-opacity:1"
         x="17.233479"
         y="40.33934"
         id="tspan11-1-6-9-4-6-2-8">VIN</tspan></text><rect
       style="fill:#ffffff;fill-opacity:1;stroke:none;stroke-width:1.28599;stroke-opacity:1;shape-rendering:crispEdges"
       id="rect1-5-7-3-8-0-8-3-47-6-0"
       width="2.8991249"
       height="2.3204384"
       x="15.874999"
       y="41.870312"
       ry="0.69453275"
       rx="0.63825071" /><text
       xml:space="preserve"
       style="font-size:2.11667px;line-height:0.8;font-family:Calibri;-inkscape-font-specification:'Calibri, Normal';fill:#000000;fill-opacity:1;stroke:none;stroke-width:2.64599;stroke-opacity:1"
       x="17.31534"
       y="43.744793"
       id="text2-6-5-7-3-1-7-6-2-4-1"><tspan
         sodipodi:role="line"
         style="font-style:normal;font-variant:normal;font-weight:normal;font-stretch:normal;font-size:2.11667px;line-height:0.8;font-family:'Tw Cen MT';-inkscape-font-specification:'Tw Cen MT, Normal';font-variant-ligatures:normal;font-variant-caps:normal;font-variant-numeric:normal;font-variant-east-asian:normal;text-align:center;text-anchor:middle;fill:#000000;fill-opacity:1;stroke:none;stroke-width:2.646;stroke-opacity:1"
         x="17.31534"
         y="43.744793"
         id="tspan11-1-6-9-4-6-2-8-4">V</tspan></text><rect
       style="fill:#ffffff;fill-opacity:1;stroke:none;stroke-width:1.28599;stroke-opacity:1;shape-rendering:crispEdges"
       id="rect1-5-7-3-8-0-8-3-47-6-0-0"
       width="2.8825898"
       height="2.3204384"
       x="15.875"
       y="44.913021"
       ry="0.69453275"
       rx="0.63825071" /><text
       xml:space="preserve"
       style="font-size:2.11667px;line-height:0.8;font-family:Calibri;-inkscape-font-specification:'Calibri, Normal';fill:#000000;fill-opacity:1;stroke:none;stroke-width:2.64599;stroke-opacity:1"
       x="17.298805"
       y="46.770966"
       id="text2-6-5-7-3-1-7-6-2-4-1-3"><tspan
         sodipodi:role="line"
         style="font-style:normal;font-variant:normal;font-weight:normal;font-stretch:normal;font-size:2.11667px;line-height:0.8;font-family:'Tw Cen MT';-inkscape-font-specification:'Tw Cen MT, Normal';font-variant-ligatures:normal;font-variant-caps:normal;font-variant-numeric:normal;font-variant-east-asian:normal;text-align:center;text-anchor:middle;fill:#000000;fill-opacity:1;stroke:none;stroke-width:2.646;stroke-opacity:1"
         x="17.298805"
         y="46.770966"
         id="tspan11-1-6-9-4-6-2-8-4-6">C</tspan></text><path
       id="path4"
       style="fill:#ffffff;stroke-width:1.28599;shape-rendering:crispEdges"
       d="M 36.952266 41.771094 C 36.598676 41.771094 36.314062 42.080854 36.314062 42.465625 L 36.314062 43.396834 C 36.314062 43.781605 36.598676 44.091366 36.952266 44.091366 L 38.574906 44.091366 C 38.928497 44.091366 39.21311 43.781605 39.21311 43.396834 L 39.21311 42.465625 C 39.21311 42.080854 38.928497 41.771094 38.574906 41.771094 L 36.952266 41.771094 z M 37.142952 42.33075 L 37.333122 42.33075 L 37.7455 43.261959 L 38.160978 42.33075 L 38.353215 42.33075 L 37.743433 43.68984 L 37.142952 42.33075 z "
       inkscape:export-filename="20260115 Scader Leds Legend Plain.svg"
       inkscape:export-xdpi="150"
       inkscape:export-ydpi="150" /><path
       id="path2"
       style="fill:#ffffff;stroke-width:1.28599;shape-rendering:crispEdges"
       d="M 36.952266 44.813802 C 36.598676 44.813802 36.314062 45.123563 36.314062 45.508333 L 36.314062 46.439543 C 36.314062 46.824313 36.598676 47.134074 36.952266 47.134074 L 38.55837 47.134074 C 38.911961 47.134074 39.196574 46.824313 39.196574 46.439543 L 39.196574 45.508333 C 39.196574 45.123563 38.911961 44.813802 38.55837 44.813802 L 36.952266 44.813802 z M 37.900529 45.31248 C 38.029376 45.31248 38.162701 45.341416 38.300505 45.399296 L 38.300505 45.602901 C 38.158566 45.53331 38.027997 45.498515 37.908797 45.498515 C 37.755835 45.498515 37.626989 45.548124 37.522257 45.647343 C 37.417527 45.745872 37.365161 45.86714 37.365161 46.011145 C 37.365161 46.157906 37.41856 46.280551 37.525358 46.379081 C 37.632845 46.476922 37.767204 46.525842 37.928434 46.525842 C 38.045567 46.525842 38.169591 46.488979 38.300505 46.415255 L 38.300505 46.620927 C 38.181304 46.68432 38.052113 46.716012 37.912931 46.716012 C 37.708982 46.716012 37.53466 46.64711 37.389966 46.509306 C 37.245271 46.370813 37.172925 46.20407 37.172925 46.009078 C 37.172925 45.817531 37.243894 45.653544 37.385832 45.517118 C 37.528459 45.380692 37.700025 45.31248 37.900529 45.31248 z " /><path
       id="path86"
       style="fill:#ffffff;stroke-width:1.28599;shape-rendering:crispEdges"
       d="M 36.323881 38.199219 C 35.97029 38.199219 35.685677 38.508978 35.685677 38.89375 L 35.685677 39.824959 C 35.685677 40.209731 35.97029 40.519491 36.323881 40.519491 L 39.335583 40.519491 C 39.689174 40.519491 39.973787 40.209731 39.973787 39.824959 L 39.973787 38.89375 C 39.973787 38.508978 39.689174 38.199219 39.335583 38.199219 L 36.323881 38.199219 z M 38.079846 38.704097 L 39.05343 39.705587 L 39.05343 38.756807 L 39.233264 38.756807 L 39.233264 40.134501 L 38.25968 39.13818 L 38.25968 40.073523 L 38.079846 40.073523 L 38.079846 38.704097 z M 37.62406 38.756807 L 37.801827 38.756807 L 37.801827 40.073523 L 37.62406 40.073523 L 37.62406 38.756807 z M 36.238098 38.758875 L 36.428267 38.758875 L 36.840645 39.690084 L 37.256124 38.758875 L 37.44836 38.758875 L 36.838578 40.117965 L 36.238098 38.758875 z "
       inkscape:export-filename="20260115 Scader Leds Legend Plain.svg"
       inkscape:export-xdpi="150"
       inkscape:export-ydpi="150" /><rect
       style="fill:#ffffff;fill-opacity:1;stroke:none;stroke-width:0.598832;stroke-opacity:1;shape-rendering:crispEdges"
       id="rect1-5-7-3-8-0-8-3-44-4-9-7-5-1"
       width="1.9487371"
       height="3.2079666"
       x="27.028109"
       y="-17.119921"
       ry="0.45545393"
       rx="0.45708102"
       transform="rotate(90)" /><rect
       style="fill:#ffffff;fill-opacity:1;stroke:none;stroke-width:0.598832;stroke-opacity:1;shape-rendering:crispEdges"
       id="rect1-5-7-3-8-0-8-3-44-4-9-7-5-8"
       width="1.9487371"
       height="3.2079666"
       x="27.028109"
       y="-21.169397"
       ry="0.45545393"
       rx="0.45708102"
       transform="rotate(90)" /><rect
       style="fill:#ffffff;fill-opacity:1;stroke:none;stroke-width:0.598832;stroke-opacity:1;shape-rendering:crispEdges"
       id="rect1-5-7-3-8-0-8-3-44-4-9-7-5-8-2"
       width="1.9487371"
       height="3.2079666"
       x="26.746069"
       y="-29.494024"
       ry="0.45545393"
       rx="0.45708102"
       transform="rotate(90)" /><text
       xml:space="preserve"
       style="font-size:1.76389px;line-height:0.8;font-family:Calibri;-inkscape-font-specification:'Calibri, Normal';fill:#000000;fill-opacity:1;stroke:none;stroke-width:2.64599;stroke-opacity:1"
       x="28.072254"
       y="28.27174"
       id="text2-6-5-7-3-1-4-3-85-0-5-6-1-5-9-6"><tspan
         sodipodi:role="line"
         style="font-style:normal;font-variant:normal;font-weight:normal;font-stretch:normal;font-size:1.76389px;line-height:0.8;font-family:'Tw Cen MT';-inkscape-font-specification:'Tw Cen MT, Normal';font-variant-ligatures:normal;font-variant-caps:normal;font-variant-numeric:normal;font-variant-east-asian:normal;text-align:center;text-anchor:middle;fill:#000000;fill-opacity:1;stroke:none;stroke-width:2.646;stroke-opacity:1"
         x="28.072254"
         y="28.27174"
         id="tspan4-0-5-1-9-4-2">#1</tspan></text><rect
       style="fill:#ffffff;fill-opacity:1;stroke:none;stroke-width:0.598832;stroke-opacity:1;shape-rendering:crispEdges"
       id="rect1-5-7-3-8-0-8-3-44-4-9-7-5-8-2-7"
       width="1.9487371"
       height="3.2079666"
       x="29.10161"
       y="-29.574747"
       ry="0.45545393"
       rx="0.45708102"
       transform="rotate(90)" /><text
       xml:space="preserve"
       style="font-size:1.76389px;line-height:0.8;font-family:Calibri;-inkscape-font-specification:'Calibri, Normal';fill:#000000;fill-opacity:1;stroke:none;stroke-width:2.64599;stroke-opacity:1"
       x="28.152977"
       y="30.627281"
       id="text2-6-5-7-3-1-4-3-85-0-5-6-1-5-9-6-6"><tspan
         sodipodi:role="line"
         style="font-style:normal;font-variant:normal;font-weight:normal;font-stretch:normal;font-size:1.76389px;line-height:0.8;font-family:'Tw Cen MT';-inkscape-font-specification:'Tw Cen MT, Normal';font-variant-ligatures:normal;font-variant-caps:normal;font-variant-numeric:normal;font-variant-east-asian:normal;text-align:center;text-anchor:middle;fill:#000000;fill-opacity:1;stroke:none;stroke-width:2.646;stroke-opacity:1"
         x="28.152977"
         y="30.627281"
         id="tspan4-0-5-1-9-4-2-1">#2</tspan></text><rect
       style="fill:#ffffff;fill-opacity:1;stroke:none;stroke-width:0.598832;stroke-opacity:1;shape-rendering:crispEdges"
       id="rect1-5-7-3-8-0-8-3-44-4-9-7-5-8-2-3"
       width="1.9487371"
       height="3.2079666"
       x="31.577869"
       y="-29.621799"
       ry="0.45545393"
       rx="0.45708102"
       transform="rotate(90)" /><text
       xml:space="preserve"
       style="font-size:1.76389px;line-height:0.8;font-family:Calibri;-inkscape-font-specification:'Calibri, Normal';fill:#000000;fill-opacity:1;stroke:none;stroke-width:2.64599;stroke-opacity:1"
       x="28.200029"
       y="33.103542"
       id="text2-6-5-7-3-1-4-3-85-0-5-6-1-5-9-6-4"><tspan
         sodipodi:role="line"
         style="font-style:normal;font-variant:normal;font-weight:normal;font-stretch:normal;font-size:1.76389px;line-height:0.8;font-family:'Tw Cen MT';-inkscape-font-specification:'Tw Cen MT, Normal';font-variant-ligatures:normal;font-variant-caps:normal;font-variant-numeric:normal;font-variant-east-asian:normal;text-align:center;text-anchor:middle;fill:#000000;fill-opacity:1;stroke:none;stroke-width:2.646;stroke-opacity:1"
         x="28.200029"
         y="33.103542"
         id="tspan4-0-5-1-9-4-2-6">#3</tspan></text><rect
       style="fill:#ffffff;fill-opacity:1;stroke:none;stroke-width:0.598832;stroke-opacity:1;shape-rendering:crispEdges"
       id="rect1-5-7-3-8-0-8-3-44-4-9-7-5-8-2-6"
       width="1.9487371"
       height="3.2079666"
       x="34.0182"
       y="-29.67487"
       ry="0.45545393"
       rx="0.45708102"
       transform="rotate(90)" /><text
       xml:space="preserve"
       style="font-size:1.76389px;line-height:0.8;font-family:Calibri;-inkscape-font-specification:'Calibri, Normal';fill:#000000;fill-opacity:1;stroke:none;stroke-width:2.64599;stroke-opacity:1"
       x="28.253099"
       y="35.543873"
       id="text2-6-5-7-3-1-4-3-85-0-5-6-1-5-9-6-65"><tspan
         sodipodi:role="line"
         style="font-style:normal;font-variant:normal;font-weight:normal;font-stretch:normal;font-size:1.76389px;line-height:0.8;font-family:'Tw Cen MT';-inkscape-font-specification:'Tw Cen MT, Normal';font-variant-ligatures:normal;font-variant-caps:normal;font-variant-numeric:normal;font-variant-east-asian:normal;text-align:center;text-anchor:middle;fill:#000000;fill-opacity:1;stroke:none;stroke-width:2.646;stroke-opacity:1"
         x="28.253099"
         y="35.543873"
         id="tspan4-0-5-1-9-4-2-3">#4</tspan></text><text
       xml:space="preserve"
       style="font-size:1.76389px;line-height:0.8;font-family:Calibri;-inkscape-font-specification:'Calibri, Normal';fill:#000000;fill-opacity:1;stroke:none;stroke-width:2.64599;stroke-opacity:1"
       x="15.564168"
       y="28.531729"
       id="text2-6-5-7-3-1-4-3-85-0-5-4-5-4-1-1-4-5"><tspan
         sodipodi:role="line"
         style="font-style:normal;font-variant:normal;font-weight:normal;font-stretch:normal;font-size:1.76389px;line-height:0.8;font-family:'Tw Cen MT';-inkscape-font-specification:'Tw Cen MT, Normal';font-variant-ligatures:normal;font-variant-caps:normal;font-variant-numeric:normal;font-variant-east-asian:normal;text-align:center;text-anchor:middle;fill:#000000;fill-opacity:1;stroke:none;stroke-width:2.646;stroke-opacity:1"
         x="15.564168"
         y="28.531729"
         id="tspan4-0-1-4-1-6-0-9-4">V+</tspan></text><text
       xml:space="preserve"
       style="font-size:1.76389px;line-height:0.8;font-family:Calibri;-inkscape-font-specification:'Calibri, Normal';fill:#000000;fill-opacity:1;stroke:none;stroke-width:2.64599;stroke-opacity:1"
       x="19.546038"
       y="28.551109"
       id="text2-6-5-7-3-1-4-3-85-0-5-4-5-9-7-38-5-1-6"><tspan
         sodipodi:role="line"
         style="font-style:normal;font-variant:normal;font-weight:normal;font-stretch:normal;font-size:1.76389px;line-height:0.8;font-family:'Tw Cen MT';-inkscape-font-specification:'Tw Cen MT, Normal';font-variant-ligatures:normal;font-variant-caps:normal;font-variant-numeric:normal;font-variant-east-asian:normal;text-align:center;text-anchor:middle;fill:#000000;fill-opacity:1;stroke:none;stroke-width:2.646;stroke-opacity:1"
         x="19.546038"
         y="28.551109"
         id="tspan4-0-1-4-4-5-0-2-0-8">0V</tspan></text><path
       id="path47"
       style="fill:#ffffff;fill-opacity:0.997396;stroke-width:0.07;shape-rendering:crispEdges"
       d="m 35.306372,11.653956 c -0.457185,0 -0.825273,0.381594 -0.825273,0.855245 v 1.992643 c 0,0.473653 0.368088,0.854728 0.825273,0.854728 h 16.396932 c 0.457186,0 0.825273,-0.381075 0.825273,-0.854728 v -1.992643 c 0,-0.473651 -0.368087,-0.855245 -0.825273,-0.855245 z m 0.571025,0.539502 c 0.119427,7.82e-4 0.240235,0.0271 0.362768,0.07958 0.122535,0.05248 0.224567,0.132044 0.305408,0.238228 l -0.24443,0.19327 c -0.06387,-0.06703 -0.122051,-0.116847 -0.174666,-0.149345 -0.05145,-0.03364 -0.126549,-0.05103 -0.225309,-0.05168 -0.107944,-7.07e-4 -0.195992,0.02341 -0.264067,0.07235 -0.06692,0.0478 -0.100265,0.110131 -0.100769,0.187068 -4.36e-4,0.06661 0.02807,0.126226 0.0863,0.178284 0.05823,0.05091 0.157842,0.107194 0.29869,0.168982 0.140854,0.06064 0.250404,0.117712 0.328145,0.171049 0.0789,0.0522 0.143156,0.10963 0.19327,0.173116 0.05011,0.06349 0.08693,0.130298 0.110587,0.200505 0.02481,0.07021 0.0372,0.144638 0.03669,0.222725 -0.0012,0.182586 -0.06904,0.337862 -0.203089,0.465605 -0.132901,0.127749 -0.293296,0.190885 -0.481624,0.189652 -0.183735,-0.0012 -0.346201,-0.05213 -0.486792,-0.152962 -0.139436,-0.101972 -0.246436,-0.253814 -0.320911,-0.455269 l 0.300757,-0.08268 c 0.107476,0.247608 0.273603,0.372147 0.498678,0.373621 0.109092,7.14e-4 0.200077,-0.03114 0.272851,-0.09612 0.07277,-0.06499 0.109417,-0.147628 0.110071,-0.24753 3.91e-4,-0.05971 -0.01831,-0.119354 -0.05581,-0.179318 -0.03749,-0.06111 -0.08403,-0.111486 -0.140044,-0.150895 -0.05601,-0.03941 -0.14605,-0.08417 -0.269751,-0.134359 -0.122541,-0.05133 -0.216853,-0.09775 -0.283186,-0.139526 -0.06518,-0.04291 -0.121648,-0.09316 -0.169499,-0.150895 -0.04785,-0.05888 -0.08335,-0.117099 -0.105937,-0.174666 -0.02144,-0.05756 -0.03195,-0.119031 -0.03152,-0.184485 0.001,-0.157323 0.0652,-0.291079 0.192236,-0.400493 0.127046,-0.110562 0.280664,-0.164994 0.460954,-0.163814 z m 5.558317,0.06563 0.296622,0.0021 -0.01499,2.235523 -0.292488,-0.0016 0.0016,-0.296622 c -0.142712,0.223001 -0.328036,0.333775 -0.556555,0.332279 -0.184883,-0.0012 -0.342783,-0.07631 -0.473873,-0.225309 -0.131089,-0.149001 -0.196181,-0.327518 -0.19482,-0.535368 0.0013,-0.203256 0.06984,-0.376973 0.205155,-0.521932 0.135318,-0.146108 0.295593,-0.218776 0.481625,-0.217558 0.111388,7.29e-4 0.215554,0.03244 0.311608,0.09508 0.09605,0.06264 0.172164,0.14415 0.228927,0.244429 z m 4.740279,0.07235 0.296106,0.0021 -0.0124,1.898076 0.714686,0.0046 -0.0016,0.296106 -1.011308,-0.0062 z m 1.289844,0.0083 1.216463,0.0083 -0.0021,0.299723 -0.919841,-0.0062 -0.0036,0.54777 0.91984,0.0062 -0.0021,0.296106 -0.91984,-0.0062 -0.0047,0.754476 0.91984,0.0062 -0.0021,0.296106 -1.215946,-0.0078 z m 1.57303,0.01034 0.532267,0.0036 c 0.421441,0.0028 0.733833,0.116424 0.937928,0.340548 0.204095,0.224124 0.305212,0.478875 0.30334,0.764811 -0.0019,0.288233 -0.1096,0.542505 -0.323494,0.762744 -0.213894,0.220239 -0.523262,0.329249 -0.928626,0.326595 l -0.535884,-0.0036 z m 0.297656,0.295072 -0.01033,1.60507 h 0.01705 c 0.222779,0.0015 0.390664,-0.0071 0.503329,-0.02584 0.112673,-0.01994 0.219413,-0.06314 0.32091,-0.130225 0.101498,-0.06709 0.182437,-0.156169 0.24288,-0.267167 0.06045,-0.112147 0.0911,-0.235648 0.09198,-0.370003 0.0011,-0.168806 -0.04511,-0.32161 -0.139527,-0.458887 -0.09442,-0.137276 -0.208165,-0.230065 -0.341064,-0.278019 -0.131751,-0.04794 -0.309891,-0.07243 -0.533818,-0.0739 z m -11.741919,0.363802 c 0.13206,8.65e-4 0.268081,0.03612 0.407728,0.105937 l -0.0021,0.334346 c -0.149801,-0.09745 -0.291974,-0.146398 -0.42633,-0.147277 -0.124021,-8.12e-4 -0.233009,0.04201 -0.326595,0.128674 -0.09359,0.08666 -0.140827,0.188277 -0.141594,0.305408 -8.64e-4,0.132059 0.042,0.244089 0.128675,0.33538 0.08669,0.09014 0.19356,0.135598 0.319877,0.136425 0.128614,8.42e-4 0.27572,-0.05575 0.441833,-0.169498 l -0.0021,0.342614 c -0.1533,0.08627 -0.301908,0.129098 -0.445451,0.128158 -0.196366,-0.0013 -0.36804,-0.0758 -0.515214,-0.223759 -0.146017,-0.149098 -0.218311,-0.320628 -0.217041,-0.514697 0.0014,-0.220482 0.07582,-0.402492 0.223759,-0.54622 0.147943,-0.144877 0.332859,-0.216942 0.554488,-0.215491 z m 1.347205,0.0088 c 0.111389,7.29e-4 0.216753,0.03201 0.31626,0.09353 0.09951,0.06152 0.176512,0.141296 0.230993,0.239262 l 0.0021,-0.289388 0.299723,0.0021 -0.0093,1.421102 -0.299723,-0.0021 0.0016,-0.28267 c -0.147245,0.213785 -0.328782,0.320257 -0.54467,0.318844 -0.187179,-0.0012 -0.346795,-0.0759 -0.47904,-0.223759 -0.131097,-0.147852 -0.196196,-0.326772 -0.19482,-0.536918 0.0013,-0.198663 0.06943,-0.371568 0.203605,-0.518832 0.135333,-0.148405 0.293066,-0.222355 0.473356,-0.221175 z m 3.923792,0.02584 c 0.204404,0.0013 0.379145,0.07754 0.523999,0.228927 0.144862,0.150239 0.215216,0.345104 0.211356,0.583944 l -1.212846,-0.0083 c 0.02546,0.146013 0.08468,0.253584 0.177251,0.321945 0.09373,0.06722 0.195684,0.101081 0.305924,0.101802 0.169954,0.0011 0.312639,-0.06879 0.428398,-0.209289 l 0.218074,0.166914 c -0.165603,0.211368 -0.386373,0.315997 -0.661975,0.314193 -0.211295,-0.0014 -0.38772,-0.07452 -0.529167,-0.220141 -0.141447,-0.145623 -0.211212,-0.325796 -0.209806,-0.540536 0.0013,-0.200959 0.07409,-0.374851 0.218591,-0.520898 0.145661,-0.147189 0.322351,-0.219952 0.530201,-0.218592 z m 1.861901,0.0124 c 0.02871,1.88e-4 0.07014,0.0071 0.124024,0.02119 l -0.09302,0.299207 c -0.05734,-0.01186 -0.09532,-0.01797 -0.113688,-0.01809 -0.101054,-6.62e-4 -0.186432,0.03467 -0.255798,0.10542 -0.06821,0.0696 -0.102661,0.156868 -0.103353,0.262516 l -0.0052,0.787549 -0.299723,-0.0021 0.0093,-1.421102 0.293005,0.0021 -0.0021,0.292489 c 0.06737,-0.116695 0.132875,-0.200403 0.196371,-0.251665 0.06465,-0.0524 0.147909,-0.07818 0.250113,-0.07751 z m 6.810954,0.04444 c 0.134356,8.8e-4 0.284502,0.07132 0.450102,0.211357 l -0.201021,0.17415 c -0.05143,-0.03708 -0.09606,-0.06458 -0.133842,-0.0832 -0.03777,-0.01977 -0.08268,-0.03015 -0.134359,-0.03049 -0.121724,-7.96e-4 -0.182865,0.04376 -0.183451,0.133326 -4.21e-4,0.0643 0.07596,0.127264 0.229443,0.189135 0.154635,0.06073 0.266035,0.127714 0.333313,0.200505 0.06728,0.07279 0.100405,0.160314 0.09974,0.262516 -7.81e-4,0.119428 -0.05011,0.223711 -0.148311,0.312643 -0.09819,0.08778 -0.213656,0.131089 -0.345715,0.130224 -0.20096,-0.0013 -0.365081,-0.09528 -0.492477,-0.282153 l 0.236678,-0.112138 c 0.08215,0.08093 0.168295,0.12137 0.257866,0.121956 0.06201,4.06e-4 0.116114,-0.01558 0.162264,-0.04857 0.0473,-0.03415 0.07102,-0.07356 0.07131,-0.118339 5.19e-4,-0.07924 -0.08075,-0.151265 -0.243396,-0.215491 -0.162651,-0.06423 -0.275226,-0.128549 -0.337964,-0.19327 -0.06158,-0.06586 -0.09209,-0.146536 -0.09147,-0.241846 7.74e-4,-0.118278 0.04543,-0.216013 0.134359,-0.293522 0.09009,-0.07865 0.202575,-0.117668 0.33693,-0.116789 z m -12.482959,0.200505 c -0.126317,-8.27e-4 -0.236997,0.04466 -0.331762,0.135909 -0.09477,0.09125 -0.142849,0.198957 -0.143661,0.322978 -8.79e-4,0.134356 0.04466,0.248883 0.135909,0.343648 0.09125,0.09476 0.202403,0.142287 0.333313,0.143144 0.129762,8.49e-4 0.241239,-0.04454 0.334863,-0.136943 0.09363,-0.09356 0.140752,-0.204699 0.141594,-0.333313 8.49e-4,-0.129762 -0.04505,-0.240837 -0.13746,-0.333313 -0.09241,-0.09363 -0.203033,-0.141261 -0.332796,-0.14211 z m 1.935799,0.0062 c -0.133207,-8.72e-4 -0.246414,0.04413 -0.340031,0.135392 -0.09246,0.09012 -0.139178,0.201254 -0.140043,0.333313 -8.27e-4,0.126318 0.04547,0.237384 0.13901,0.333313 0.09355,0.09478 0.202976,0.142841 0.328145,0.143661 0.133208,8.72e-4 0.246415,-0.04465 0.340031,-0.135909 0.09362,-0.09126 0.141246,-0.202804 0.14211,-0.334863 8.35e-4,-0.127466 -0.04505,-0.238138 -0.137459,-0.331763 -0.0924,-0.09477 -0.203148,-0.142302 -0.331763,-0.143144 z m 1.872238,0.01189 c -0.205553,-0.0013 -0.353167,0.09527 -0.442867,0.289905 l 0.868164,0.0057 c -0.09518,-0.19585 -0.23697,-0.294356 -0.425297,-0.295589 z"
       inkscape:export-filename="20260115 Scader Leds Legend Plain.svg"
       inkscape:export-xdpi="150"
       inkscape:export-ydpi="150" /><path
       id="rect178195-3-7"
       style="fill:#ffffff;fill-opacity:0.997396;stroke-width:0.07;shape-rendering:crispEdges"
       d="M 35.334794 16.304948 C 34.939326 16.304948 34.621143 16.636637 34.621143 17.048572 L 34.621143 18.206124 C 34.621143 18.618058 34.939326 18.949748 35.334794 18.949748 L 45.270105 18.949748 C 45.665574 18.949748 45.984273 18.618058 45.984273 18.206124 L 45.984273 17.048572 C 45.984273 16.636637 45.665574 16.304948 45.270105 16.304948 L 35.334794 16.304948 z M 37.506238 16.88269 L 37.684005 16.883724 L 37.679354 17.541048 C 37.756672 17.413394 37.866943 17.349945 38.009566 17.350879 C 38.119807 17.351601 38.214784 17.396517 38.29482 17.485238 C 38.375546 17.573963 38.415503 17.679199 38.414709 17.800464 C 38.413916 17.921729 38.373273 18.027332 38.292753 18.117757 C 38.212927 18.207498 38.119807 18.252294 38.0137 18.251599 C 37.945489 18.251153 37.880996 18.232192 37.819914 18.195272 C 37.758834 18.158351 37.710985 18.108337 37.676253 18.04541 L 37.67522 18.225244 L 37.497453 18.224211 L 37.506238 16.88269 z M 35.46967 16.894059 L 35.754924 16.896126 C 35.896859 16.897055 36.012222 16.933097 36.100639 17.004647 C 36.189749 17.075512 36.234169 17.166224 36.233447 17.276465 C 36.23287 17.364658 36.203401 17.442382 36.145081 17.509526 C 36.08676 17.576669 35.996084 17.623328 35.873263 17.650085 L 36.253084 18.215942 L 36.047412 18.214909 L 35.68516 17.670756 L 35.644853 17.670756 L 35.641235 18.212325 L 35.461401 18.210775 L 35.46967 16.894059 z M 41.59436 16.909562 L 41.772127 16.910596 L 41.767993 17.56792 C 41.845312 17.440265 41.955581 17.376817 42.098206 17.377751 C 42.208446 17.378472 42.303423 17.423389 42.383459 17.512109 C 42.464184 17.600834 42.504143 17.705554 42.503349 17.826819 C 42.502555 17.948084 42.461912 18.054203 42.381392 18.144629 C 42.301566 18.23437 42.208447 18.278649 42.10234 18.277954 C 42.034129 18.277508 41.969635 18.259064 41.908553 18.222144 C 41.847467 18.185223 41.799618 18.135209 41.764893 18.072282 L 41.763342 18.252116 L 41.585575 18.251082 L 41.59436 16.909562 z M 39.249284 16.918864 L 39.568644 16.920931 C 39.821509 16.922586 40.009461 16.990579 40.131917 17.125053 C 40.254374 17.259527 40.314941 17.412894 40.313818 17.584456 C 40.312686 17.757397 40.247851 17.909649 40.119515 18.041793 C 39.991179 18.173936 39.805662 18.239239 39.562443 18.237646 L 39.241016 18.235579 L 39.249284 16.918864 z M 35.64847 17.054773 L 35.645886 17.51366 C 35.911117 17.520929 36.043786 17.444948 36.044828 17.285767 C 36.045194 17.229955 36.030129 17.184164 35.999353 17.148824 C 35.968582 17.112795 35.92744 17.088188 35.875846 17.075444 C 35.824253 17.062012 35.748372 17.055427 35.64847 17.054773 z M 39.428084 17.095597 L 39.421883 18.058846 L 39.432218 18.059363 C 39.565885 18.060238 39.66641 18.054614 39.734009 18.043343 C 39.801612 18.031385 39.865863 18.005567 39.926762 17.965312 C 39.98766 17.925056 40.036223 17.871713 40.072489 17.805115 C 40.108757 17.737827 40.127255 17.66352 40.127783 17.582906 C 40.128446 17.481622 40.100199 17.389837 40.043551 17.307471 C 39.986902 17.225105 39.918654 17.169845 39.838912 17.141073 C 39.759861 17.112308 39.65339 17.09751 39.519035 17.096631 L 39.428084 17.095597 z M 36.824109 17.343127 C 36.946752 17.34393 37.053452 17.389899 37.144503 17.48007 C 37.235559 17.569552 37.280675 17.673515 37.279895 17.792712 C 37.27911 17.9126 37.233296 18.018443 37.142436 18.109489 C 37.05227 18.199851 36.948129 18.244619 36.83031 18.243848 C 36.704222 18.243022 36.595107 18.19674 36.502681 18.105872 C 36.410946 18.015007 36.365457 17.908982 36.366256 17.787028 C 36.367018 17.670587 36.413554 17.567146 36.505782 17.477486 C 36.598705 17.387142 36.704912 17.342347 36.824109 17.343127 z M 40.912748 17.369999 C 41.035391 17.370802 41.14209 17.416254 41.233142 17.506425 C 41.324198 17.595907 41.369315 17.700387 41.368534 17.819584 C 41.36775 17.939471 41.321934 18.044797 41.231075 18.135844 C 41.140909 18.226206 41.036769 18.270974 40.918949 18.270203 C 40.792862 18.269377 40.683745 18.223612 40.591321 18.132743 C 40.499585 18.041879 40.454097 17.935337 40.454895 17.813383 C 40.455657 17.696942 40.502193 17.594018 40.594421 17.504358 C 40.687343 17.414014 40.79355 17.369219 40.912748 17.369999 z M 42.975671 17.383435 C 43.056285 17.383963 43.146062 17.426536 43.245422 17.510559 L 43.125016 17.614945 C 43.094155 17.592696 43.067068 17.575995 43.044401 17.564819 C 43.021738 17.552957 42.994785 17.546936 42.963786 17.546733 C 42.890751 17.546254 42.854067 17.573092 42.853715 17.626831 C 42.853462 17.665417 42.899604 17.703399 42.991691 17.740519 C 43.084472 17.776954 43.150795 17.816733 43.191162 17.860409 C 43.23153 17.90408 43.252025 17.956698 43.251624 18.018022 C 43.251154 18.089678 43.22114 18.152248 43.162223 18.205607 C 43.103311 18.258276 43.034236 18.284157 42.955001 18.283639 C 42.834425 18.282849 42.73585 18.226264 42.659412 18.11414 L 42.801522 18.04696 C 42.850812 18.095517 42.902289 18.119989 42.956034 18.120341 C 42.99324 18.120585 43.026013 18.110685 43.053703 18.090885 C 43.082084 18.070397 43.095902 18.046955 43.096077 18.020089 C 43.096389 17.97255 43.04794 17.929435 42.95035 17.890898 C 42.85276 17.852365 42.785422 17.813978 42.747778 17.775142 C 42.71083 17.735626 42.69211 17.68712 42.692485 17.629932 C 42.692949 17.558964 42.720258 17.50022 42.773617 17.453715 C 42.827667 17.406528 42.895055 17.382907 42.975671 17.383435 z M 43.843319 17.389119 C 43.965961 17.389922 44.073178 17.435375 44.164229 17.525545 C 44.255285 17.615027 44.300402 17.719507 44.299622 17.838704 C 44.298837 17.958592 44.253021 18.063918 44.162162 18.154964 C 44.071996 18.245326 43.967857 18.290611 43.850037 18.28984 C 43.723949 18.289014 43.614833 18.242732 43.522408 18.151864 C 43.430672 18.060999 43.385184 17.954974 43.385982 17.83302 C 43.386745 17.716579 43.43328 17.613138 43.525509 17.523478 C 43.618431 17.433134 43.724121 17.388339 43.843319 17.389119 z M 44.918188 17.396354 C 44.995357 17.396859 45.060978 17.423044 45.115076 17.474386 C 45.169861 17.525732 45.197194 17.587213 45.196724 17.65887 L 45.19259 18.274854 L 45.012756 18.273303 L 45.016374 17.71003 C 45.016676 17.663864 45.002053 17.625821 44.971932 17.595308 C 44.942504 17.564802 44.904926 17.549102 44.858761 17.5488 C 44.798815 17.548407 44.746953 17.573546 44.703215 17.624247 C 44.65948 17.674262 44.637021 17.73501 44.636552 17.806665 L 44.633451 18.270719 L 44.455684 18.269686 L 44.461369 17.417025 L 44.637069 17.418058 L 44.636035 17.559652 C 44.688082 17.502805 44.735425 17.461537 44.777629 17.435628 C 44.819837 17.409031 44.866516 17.396016 44.918188 17.396354 z M 37.94032 17.514176 C 37.863841 17.513676 37.797201 17.541247 37.740332 17.597375 C 37.684155 17.652816 37.655567 17.718813 37.655066 17.795296 C 37.654543 17.875221 37.682297 17.942899 37.737748 17.998385 C 37.793891 18.053187 37.862462 18.081047 37.944454 18.081584 C 38.020244 18.08208 38.086028 18.054357 38.140824 17.998901 C 38.196309 17.94345 38.224031 17.876768 38.22454 17.798914 C 38.22505 17.721056 38.197826 17.654411 38.142375 17.598926 C 38.086928 17.542748 38.019553 17.514695 37.94032 17.514176 z M 36.829277 17.521411 C 36.75142 17.520901 36.68356 17.547447 36.626705 17.60151 C 36.570541 17.65489 36.542447 17.719164 36.541956 17.794263 C 36.541486 17.865919 36.569524 17.92877 36.625671 17.982882 C 36.682505 18.037001 36.749178 18.064547 36.825659 18.065047 C 36.900072 18.065534 36.965343 18.038152 37.021513 17.983398 C 37.077686 17.928645 37.105784 17.864715 37.106262 17.791679 C 37.106736 17.719334 37.079385 17.656474 37.024613 17.60306 C 36.969847 17.548954 36.905069 17.521907 36.829277 17.521411 z M 42.028442 17.540531 C 41.951963 17.540031 41.885323 17.568118 41.828455 17.624247 C 41.772277 17.679687 41.744206 17.745685 41.743705 17.822168 C 41.743182 17.902093 41.77042 17.969771 41.825871 18.025256 C 41.882013 18.080058 41.951102 18.107402 42.033093 18.107939 C 42.108884 18.108435 42.17415 18.081229 42.228947 18.025773 C 42.284431 17.970322 42.31267 17.90364 42.31318 17.825785 C 42.313689 17.747928 42.285948 17.681283 42.230497 17.625798 C 42.175051 17.56962 42.107675 17.54105 42.028442 17.540531 z M 40.917399 17.547766 C 40.839542 17.547256 40.772199 17.574319 40.715344 17.628381 C 40.65918 17.681761 40.631087 17.746035 40.630595 17.821134 C 40.630126 17.892791 40.657647 17.955641 40.713794 18.009753 C 40.770628 18.063873 40.8373 18.090902 40.913782 18.091402 C 40.988194 18.091889 41.053982 18.065024 41.110152 18.01027 C 41.166325 17.955517 41.194423 17.891587 41.194902 17.818551 C 41.195375 17.746206 41.168024 17.683346 41.113253 17.629932 C 41.058486 17.575825 40.993191 17.548262 40.917399 17.547766 z M 43.848486 17.566886 C 43.770629 17.566377 43.703287 17.593439 43.646431 17.647502 C 43.590268 17.700882 43.562174 17.765156 43.561682 17.840255 C 43.561213 17.911911 43.588734 17.974762 43.644881 18.028874 C 43.701715 18.082994 43.768387 18.110022 43.844869 18.110522 C 43.919281 18.11101 43.984552 18.084144 44.040723 18.02939 C 44.096896 17.974637 44.125511 17.910707 44.125989 17.837671 C 44.126462 17.765326 44.099111 17.702466 44.04434 17.649052 C 43.989573 17.594946 43.924279 17.567383 43.848486 17.566886 z " /><g
       id="path5-21-0"
       transform="translate(-0.26458334,-2.5052734)"><path
         id="path85"
         style="color:#000000;fill:#ffffff;stroke-linecap:round;stroke-linejoin:round;-inkscape-stroke:none;shape-rendering:crispEdges"
         d="m 49.812464,22.490617 c -0.70554,1e-6 -1.290878,0.585852 -1.290877,1.291394 -10e-7,0.70554 0.585337,1.292944 1.290877,1.292944 0.705542,1e-6 1.290878,-0.587403 1.290877,-1.292944 10e-7,-0.705543 -0.585335,-1.291394 -1.290877,-1.291394 z m -0.115755,0.560689 h 0.180867 v 0.659908 h 0.664042 v 0.180351 h -0.664042 v 0.65474 h -0.180867 v -0.65474 h -0.657325 v -0.180351 h 0.657325 z" /></g><g
       id="path5-1-6-6"
       transform="translate(-0.53317061,-0.76547166)"
       style="stroke:none"><path
         id="path79"
         style="color:#000000;fill:#ffffff;stroke:none;stroke-linecap:round;stroke-linejoin:round;-inkscape-stroke:none;shape-rendering:crispEdges"
         d="m 46.865743,20.710508 c -0.705541,0 -1.291393,0.585336 -1.291394,1.290877 0,0.705541 0.585853,1.291395 1.291394,1.291394 0.705541,1e-6 1.292945,-0.585853 1.292945,-1.291394 -10e-7,-0.705541 -0.587404,-1.290877 -1.292945,-1.290877 z m -0.555521,1.209745 h 1.127063 v 0.234094 h -1.127063 z" /></g><path
       id="path65"
       style="fill:#ffffff;stroke-width:1.28599;shape-rendering:crispEdges"
       d="M 35.57509 20.023584 C 35.139048 20.023584 34.788057 20.399724 34.788057 20.866943 L 34.788057 21.911324 C 34.788057 22.378545 35.139048 22.754683 35.57509 22.754683 L 41.015584 22.754683 C 41.451625 22.754683 41.802616 22.378545 41.802616 21.911324 L 41.802616 20.866943 C 41.802616 20.399724 41.451625 20.023584 41.015584 20.023584 L 35.57509 20.023584 z M 39.162467 20.49849 L 39.28029 20.49849 L 38.423494 22.499402 L 38.300505 22.499402 L 39.162467 20.49849 z M 37.663334 20.665922 L 38.087081 21.637439 L 38.484989 20.718632 L 38.671025 20.718632 L 38.087081 22.073588 L 37.663334 21.100004 L 37.239587 22.073588 L 36.655644 20.718632 L 36.841679 20.718632 L 37.241654 21.645707 L 37.663334 20.665922 z M 36.066016 20.67419 C 36.263764 20.67419 36.433952 20.741715 36.576579 20.876762 C 36.719206 21.01181 36.790519 21.173039 36.790519 21.360453 C 36.790519 21.572671 36.714383 21.74906 36.562109 21.88962 L 36.768815 22.113896 L 36.534204 22.113896 L 36.417415 21.990906 C 36.292703 22.048786 36.174191 22.077722 36.061882 22.077722 C 35.859999 22.077722 35.688433 22.008476 35.547184 21.869983 C 35.406624 21.73149 35.336344 21.563714 35.336344 21.366654 C 35.336344 21.176486 35.407658 21.013532 35.550285 20.877795 C 35.692912 20.74206 35.864822 20.67419 36.066016 20.67419 z M 39.843563 20.67419 C 39.915221 20.67419 39.987912 20.689692 40.061637 20.720699 C 40.135363 20.751706 40.196686 20.798903 40.245605 20.862292 L 40.099878 20.979081 C 40.061291 20.939121 40.026151 20.909491 39.994458 20.890198 C 39.963451 20.870218 39.91832 20.860225 39.859066 20.860225 C 39.794299 20.860225 39.741589 20.875041 39.700936 20.904667 C 39.660969 20.933607 39.640991 20.971158 39.640991 21.017322 C 39.640991 21.057282 39.658561 21.092767 39.693701 21.123775 C 39.728841 21.154089 39.788786 21.187506 39.873535 21.224028 C 39.958285 21.259854 40.024086 21.293616 40.070939 21.325313 C 40.118479 21.35632 40.157409 21.390771 40.187728 21.428666 C 40.218048 21.466559 40.240441 21.506523 40.254907 21.548556 C 40.270067 21.590582 40.277645 21.635024 40.277645 21.681881 C 40.277645 21.791435 40.237682 21.884797 40.157756 21.961967 C 40.078518 22.039138 39.9824 22.077722 39.869401 22.077722 C 39.759158 22.077722 39.661662 22.047752 39.576912 21.987805 C 39.492852 21.927172 39.428084 21.836566 39.382609 21.715987 L 39.562443 21.665344 C 39.627903 21.813483 39.728155 21.887553 39.8632 21.887553 C 39.928653 21.887553 39.983085 21.867915 40.026497 21.828642 C 40.069904 21.789368 40.09161 21.73976 40.09161 21.679814 C 40.09161 21.643987 40.080243 21.608158 40.057503 21.572327 C 40.034763 21.535807 40.006514 21.505836 39.972754 21.48241 C 39.938994 21.458983 39.884906 21.432455 39.81049 21.402828 C 39.736765 21.372515 39.679921 21.344952 39.639958 21.320146 C 39.600684 21.294652 39.566578 21.264682 39.537638 21.230229 C 39.508698 21.195089 39.48734 21.160294 39.47356 21.125842 C 39.460466 21.091389 39.453923 21.054527 39.453923 21.015255 C 39.453923 20.920859 39.491819 20.840588 39.567611 20.774443 C 39.643403 20.707608 39.735387 20.67419 39.843563 20.67419 z M 40.419238 20.716565 L 41.224357 20.716565 L 41.224357 20.896399 L 40.910164 20.896399 L 40.910164 22.03328 L 40.732397 22.03328 L 40.732397 20.896399 L 40.419238 20.896399 L 40.419238 20.716565 z M 36.05568 20.858158 C 35.908919 20.858158 35.783862 20.908457 35.680509 21.009054 C 35.577847 21.10965 35.526514 21.231607 35.526514 21.374923 C 35.526514 21.518239 35.579224 21.63985 35.684644 21.739758 C 35.790062 21.839666 35.918565 21.88962 36.07015 21.88962 C 36.133536 21.88962 36.20485 21.874805 36.28409 21.845178 L 35.994702 21.536153 L 36.229313 21.536153 L 36.432918 21.752161 C 36.54385 21.645362 36.599316 21.518926 36.599316 21.372856 C 36.599316 21.227472 36.547294 21.105516 36.443254 21.006986 C 36.339212 20.907769 36.210021 20.858158 36.05568 20.858158 z " /><g
       id="text2-6-5-7-3-1-7-6-2-10"
       style="font-size:2.11667px;line-height:0.8;font-family:Calibri;-inkscape-font-specification:'Calibri, Normal';stroke-width:2.64599"
       aria-label="QW/ST" /><path
       id="rect1-5-7-3-8-0-8-3-44-4-9-7-5-1-3"
       style="fill:#ffffff;stroke-width:0.598832;shape-rendering:crispEdges"
       d="M 26.905851 -36.183321 C 26.905851 -35.930999 27.109965 -35.727535 27.363188 -35.727535 L 28.39775 -35.727535 C 28.650973 -35.727535 28.854569 -35.930999 28.854569 -36.183321 L 28.854569 -38.480339 C 28.854569 -38.732659 28.650973 -38.935608 28.39775 -38.935608 L 27.363188 -38.935608 C 27.109965 -38.935608 26.905851 -38.732659 26.905851 -38.480339 L 26.905851 -36.183321 z M 27.314095 -36.28254 L 27.314095 -36.44067 L 28.090275 -36.784318 L 27.314095 -37.13055 L 27.314095 -37.290747 L 28.446842 -36.782768 L 27.314095 -36.28254 z M 27.370939 -37.853503 L 27.370939 -37.966158 L 27.783317 -37.966158 L 27.783317 -38.38112 L 27.896488 -38.38112 L 27.896488 -37.966158 L 28.305249 -37.966158 L 28.305249 -37.853503 L 27.896488 -37.853503 L 27.896488 -37.442676 L 27.783317 -37.442676 L 27.783317 -37.853503 L 27.370939 -37.853503 z "
       transform="rotate(90)" /><path
       id="rect1-5-7-3-8-0-8-3-44-4-9-7-5-8-9"
       style="fill:#ffffff;stroke-width:0.598832;shape-rendering:crispEdges"
       d="M 26.905851 -40.232686 C 26.905851 -39.980365 27.109965 -39.777417 27.363188 -39.777417 L 28.39775 -39.777417 C 28.650973 -39.777417 28.854569 -39.980365 28.854569 -40.232686 L 28.854569 -42.529704 C 28.854569 -42.782026 28.650973 -42.984973 28.39775 -42.984973 L 27.363188 -42.984973 C 27.109965 -42.984973 26.905851 -42.782026 26.905851 -42.529704 L 26.905851 -40.232686 z M 27.294458 -40.825932 L 27.294458 -40.8342 C 27.294458 -40.954779 27.348718 -41.053021 27.457239 -41.128239 C 27.565185 -41.204031 27.705573 -41.241927 27.878402 -41.241927 C 28.057547 -41.241927 28.200575 -41.200988 28.306799 -41.119454 C 28.413023 -41.038494 28.465963 -40.94117 28.465963 -40.827482 C 28.465963 -40.7092 28.411702 -40.610555 28.303182 -40.531893 C 28.194087 -40.453804 28.055422 -40.415104 27.887187 -40.415104 C 27.700578 -40.415104 27.555482 -40.455124 27.451554 -40.53551 C 27.347053 -40.61647 27.294458 -40.713392 27.294458 -40.825932 z M 27.333215 -41.339079 L 27.333215 -41.497725 L 28.109395 -41.841374 L 27.333215 -42.187606 L 27.333215 -42.347803 L 28.465963 -41.839307 L 27.333215 -41.339079 z M 27.451554 -40.827482 C 27.451554 -40.751116 27.491173 -40.688645 27.57041 -40.640413 C 27.649073 -40.59218 27.752829 -40.568066 27.882019 -40.568066 C 28.010062 -40.568066 28.112956 -40.59264 28.191044 -40.641447 C 28.268559 -40.690254 28.307316 -40.753586 28.307316 -40.831099 C 28.307316 -40.905743 28.267698 -40.966435 28.18846 -41.013517 C 28.108649 -41.061177 28.004894 -41.084831 27.876851 -41.084831 C 27.752828 -41.084831 27.650738 -41.060774 27.570927 -41.011967 C 27.491116 -40.96316 27.451554 -40.90155 27.451554 -40.827482 z "
       transform="rotate(90)" /><path
       id="rect1-5-7-3-8-0-8-3-44-4-9-7-5-8-2-9"
       style="fill:#ffffff;stroke-width:0.598832;shape-rendering:crispEdges"
       d="M 26.623698 -48.557243 C 26.623698 -48.304921 26.827812 -48.101973 27.081034 -48.101973 L 28.115597 -48.101973 C 28.368819 -48.101973 28.572416 -48.304921 28.572416 -48.557243 L 28.572416 -50.85426 C 28.572416 -51.106582 28.368819 -51.310046 28.115597 -51.310046 L 27.081034 -51.310046 C 26.827812 -51.310046 26.623698 -51.106582 26.623698 -50.85426 L 26.623698 -48.557243 z M 26.964246 -49.244539 L 26.964246 -49.348926 L 27.311511 -49.275028 L 27.311511 -49.63728 L 26.964246 -49.709627 L 26.964246 -49.815564 L 27.311511 -49.741667 L 27.311511 -49.913232 L 27.417448 -49.913232 L 27.417448 -49.720996 L 27.736808 -49.655367 L 27.736808 -49.913232 L 27.842745 -49.913232 L 27.842745 -49.63418 L 28.18846 -49.561833 L 28.18846 -49.456413 L 27.842745 -49.530827 L 27.842745 -49.165474 L 28.18846 -49.093127 L 28.18846 -48.987191 L 27.842745 -49.059538 L 27.842745 -48.890039 L 27.736808 -48.890039 L 27.736808 -49.081759 L 27.417448 -49.148938 L 27.417448 -48.890039 L 27.311511 -48.890039 L 27.311511 -49.170642 L 26.964246 -49.244539 z M 27.055713 -50.2698 L 27.055713 -50.554537 L 28.149703 -50.554537 L 28.149703 -50.406742 L 27.200407 -50.406742 L 27.200407 -50.219674 L 27.055713 -50.2698 z M 27.417448 -49.253324 L 27.735258 -49.186145 L 27.735258 -49.551497 L 27.417448 -49.61661 L 27.417448 -49.253324 z "
       transform="rotate(90)" /><path
       id="rect1-5-7-3-8-0-8-3-44-4-9-7-5-8-2-7-9"
       style="fill:#ffffff;stroke-width:0.598832;shape-rendering:crispEdges"
       d="M 28.979626 -48.637858 C 28.979626 -48.385537 29.183224 -48.182589 29.436446 -48.182589 L 30.471008 -48.182589 C 30.72423 -48.182589 30.928345 -48.385537 30.928345 -48.637858 L 30.928345 -50.934875 C 30.928345 -51.187197 30.72423 -51.390662 30.471008 -51.390662 L 29.436446 -51.390662 C 29.183224 -51.390662 28.979626 -51.187197 28.979626 -50.934875 L 28.979626 -48.637858 z M 29.320174 -49.325671 L 29.320174 -49.429541 L 29.666923 -49.355644 L 29.666923 -49.718412 L 29.320174 -49.790759 L 29.320174 -49.896696 L 29.666923 -49.822282 L 29.666923 -49.993848 L 29.77286 -49.993848 L 29.77286 -49.801611 L 30.092737 -49.736499 L 30.092737 -49.993848 L 30.198674 -49.993848 L 30.198674 -49.714795 L 30.543872 -49.642448 L 30.543872 -49.537545 L 30.198674 -49.611442 L 30.198674 -49.24609 L 30.543872 -49.173743 L 30.543872 -49.067806 L 30.198674 -49.140153 L 30.198674 -48.970654 L 30.092737 -48.970654 L 30.092737 -49.162891 L 29.77286 -49.23007 L 29.77286 -48.970654 L 29.666923 -48.970654 L 29.666923 -49.251257 L 29.320174 -49.325671 z M 29.370817 -50.574174 C 29.370817 -50.670063 29.408713 -50.753606 29.484505 -50.824805 C 29.559723 -50.896003 29.648836 -50.931775 29.752189 -50.931775 C 29.802142 -50.931775 29.848249 -50.92276 29.890165 -50.904386 C 29.931505 -50.886586 29.976751 -50.854718 30.025557 -50.808785 L 30.35887 -50.496659 L 30.35887 -50.914722 L 30.505115 -50.914722 L 30.505115 -50.165413 L 29.910836 -50.724036 C 29.864902 -50.765949 29.814546 -50.787081 29.759424 -50.787081 C 29.694544 -50.787081 29.638102 -50.765148 29.590442 -50.720935 C 29.542782 -50.676722 29.519128 -50.624586 29.519128 -50.564872 C 29.519128 -50.515492 29.534574 -50.468984 29.566154 -50.425346 C 29.597734 -50.382286 29.646884 -50.35432 29.712915 -50.341113 L 29.712915 -50.196419 C 29.604968 -50.210773 29.520965 -50.252917 29.461251 -50.323543 C 29.400964 -50.394742 29.370817 -50.478285 29.370817 -50.574174 z M 29.77286 -49.33394 L 30.09067 -49.26676 L 30.09067 -49.632113 L 29.77286 -49.697742 L 29.77286 -49.33394 z "
       transform="rotate(90)" /><path
       id="rect1-5-7-3-8-0-8-3-44-4-9-7-5-8-2-3-1"
       style="fill:#ffffff;stroke-width:0.598832;shape-rendering:crispEdges"
       d="M 31.455961 -48.684884 C 31.455961 -48.432562 31.659558 -48.229614 31.912781 -48.229614 L 32.947343 -48.229614 C 33.200566 -48.229614 33.404679 -48.432562 33.404679 -48.684884 L 33.404679 -50.982418 C 33.404679 -51.234739 33.200566 -51.437687 32.947343 -51.437687 L 31.912781 -51.437687 C 31.659558 -51.437687 31.455961 -51.234739 31.455961 -50.982418 L 31.455961 -48.684884 z M 31.796509 -49.372697 L 31.796509 -49.476567 L 32.143258 -49.402669 L 32.143258 -49.765438 L 31.796509 -49.837785 L 31.796509 -49.943722 L 32.143258 -49.869307 L 32.143258 -50.040873 L 32.249194 -50.040873 L 32.249194 -49.848637 L 32.569071 -49.783525 L 32.569071 -50.040873 L 32.675008 -50.040873 L 32.675008 -49.76182 L 33.020207 -49.689473 L 33.020207 -49.58457 L 32.675008 -49.658468 L 32.675008 -49.293115 L 33.020207 -49.220768 L 33.020207 -49.114832 L 32.675008 -49.187179 L 32.675008 -49.01768 L 32.569071 -49.01768 L 32.569071 -49.209916 L 32.249194 -49.277096 L 32.249194 -49.01768 L 32.143258 -49.01768 L 32.143258 -49.298283 L 31.796509 -49.372697 z M 31.847152 -50.591227 C 31.847152 -50.692857 31.875975 -50.776803 31.933968 -50.843408 C 31.991961 -50.910015 32.064768 -50.94366 32.152043 -50.94366 C 32.260563 -50.94366 32.343704 -50.888539 32.401123 -50.778296 C 32.46773 -50.907487 32.559427 -50.972083 32.676558 -50.972083 C 32.768427 -50.972083 32.848066 -50.93677 32.91582 -50.866146 C 32.983 -50.796096 33.016589 -50.712495 33.016589 -50.616032 C 33.016589 -50.518995 32.992476 -50.43505 32.944242 -50.363851 C 32.895436 -50.293226 32.81884 -50.246717 32.713765 -50.224325 L 32.713765 -50.388139 C 32.827454 -50.423739 32.884298 -50.496488 32.884298 -50.60673 C 32.884298 -50.663003 32.864893 -50.712096 32.82642 -50.754008 C 32.787373 -50.795921 32.742185 -50.817053 32.690511 -50.817053 C 32.636538 -50.817053 32.586986 -50.797642 32.5422 -50.759176 C 32.49684 -50.720709 32.473123 -50.657376 32.471403 -50.569523 L 32.335494 -50.569523 C 32.334361 -50.636702 32.317995 -50.68924 32.286401 -50.727136 C 32.254248 -50.76561 32.213366 -50.785014 32.163411 -50.785014 C 32.112312 -50.785014 32.068788 -50.767387 32.033187 -50.731787 C 31.997587 -50.696187 31.97996 -50.652664 31.97996 -50.601562 C 31.97996 -50.553329 31.99202 -50.515031 32.016134 -50.486324 C 32.040247 -50.457617 32.078545 -50.434361 32.131372 -50.416561 L 32.131372 -50.256364 C 32.038929 -50.266697 31.968764 -50.302871 31.920532 -50.364884 C 31.871726 -50.427471 31.847152 -50.502803 31.847152 -50.591227 z M 32.249194 -49.380965 L 32.567004 -49.313786 L 32.567004 -49.679138 L 32.249194 -49.744767 L 32.249194 -49.380965 z "
       transform="rotate(90)" /><path
       id="rect1-5-7-3-8-0-8-3-44-4-9-7-5-8-2-6-7"
       style="fill:#ffffff;stroke-width:0.598832;shape-rendering:crispEdges"
       d="M 33.896122 -48.73811 C 33.896122 -48.485789 34.099719 -48.282841 34.352942 -48.282841 L 35.387504 -48.282841 C 35.640727 -48.282841 35.84484 -48.485789 35.84484 -48.73811 L 35.84484 -51.035128 C 35.84484 -51.287449 35.640727 -51.490914 35.387504 -51.490914 L 34.352942 -51.490914 C 34.099719 -51.490914 33.896122 -51.287449 33.896122 -51.035128 L 33.896122 -48.73811 z M 34.23667 -49.425407 L 34.23667 -49.529793 L 34.583936 -49.455896 L 34.583936 -49.818148 L 34.23667 -49.890495 L 34.23667 -49.996431 L 34.583936 -49.922534 L 34.583936 -50.0941 L 34.689872 -50.0941 L 34.689872 -49.901864 L 35.009233 -49.836235 L 35.009233 -50.0941 L 35.115169 -50.0941 L 35.115169 -49.815047 L 35.460368 -49.7427 L 35.460368 -49.63728 L 35.115169 -49.711694 L 35.115169 -49.346342 L 35.460368 -49.273995 L 35.460368 -49.168058 L 35.115169 -49.240405 L 35.115169 -49.070907 L 35.009233 -49.070907 L 35.009233 -49.262626 L 34.689872 -49.329806 L 34.689872 -49.070907 L 34.583936 -49.070907 L 34.583936 -49.35151 L 34.23667 -49.425407 z M 34.29093 -50.94211 L 35.077962 -50.94211 L 35.077962 -51.048047 L 35.206637 -51.048047 L 35.206637 -50.94211 L 35.421611 -50.94211 L 35.421611 -50.807751 L 35.206637 -50.807751 L 35.206637 -50.192802 L 34.29093 -50.94211 z M 34.64078 -50.804651 L 35.077962 -50.455835 L 35.077962 -50.807751 L 34.64078 -50.807751 L 34.64078 -50.804651 z M 34.689872 -49.434192 L 35.007682 -49.367013 L 35.007682 -49.732365 L 34.689872 -49.797477 L 34.689872 -49.434192 z "
       transform="rotate(90)" /><text
       xml:space="preserve"
       style="font-size:2.11667px;line-height:0.8;font-family:Calibri;-inkscape-font-specification:'Calibri, Normal';fill:#000000;fill-opacity:1;stroke:none;stroke-width:2.64599;stroke-opacity:1"
       x="-25.529819"
       y="-5.755847"
       id="text2-6-5-7-3-1-4-3-85-0-5-6-8-5"
       transform="rotate(-90)"><tspan
         sodipodi:role="line"
         style="font-style:normal;font-variant:normal;font-weight:normal;font-stretch:normal;font-size:1.41111px;line-height:0.8;font-family:'Tw Cen MT';-inkscape-font-specification:'Tw Cen MT, Normal';font-variant-ligatures:normal;font-variant-caps:normal;font-variant-numeric:normal;font-variant-east-asian:normal;text-align:center;text-anchor:middle;fill:#000000;fill-opacity:1;stroke:none;stroke-width:2.646;stroke-opacity:1"
         x="-25.529819"
         y="-5.755847"
         id="tspan4-0-5-6-5" /></text><g
       id="text2-6-5-7-3-1-7-1"
       style="font-size:2.11667px;font-family:Calibri;-inkscape-font-specification:'Calibri, Normal';stroke-width:2.64599"
       aria-label="QW/ST" /><g
       id="text2-6-5-7-3-1-7-0-1"
       style="font-size:2.11667px;font-family:Calibri;-inkscape-font-specification:'Calibri, Normal';stroke-width:2.64599"
       aria-label="QW/ST" /><g
       id="text2-6-5-7-3-1-7-6-1"
       style="font-size:2.11667px;font-family:Calibri;-inkscape-font-specification:'Calibri, Normal';stroke-width:2.64599"
       aria-label="QW/ST" /><g
       id="text2-6-5-7-3-1-7-6-2-1"
       style="font-size:2.11667px;font-family:Calibri;-inkscape-font-specification:'Calibri, Normal';stroke-width:2.64599"
       aria-label="QW/ST" /><g
       id="text2-6-5-7-3-1-7-6-7-0"
       style="font-size:2.11667px;font-family:Calibri;-inkscape-font-specification:'Calibri, Normal';stroke-width:2.64599"
       aria-label="QW/ST" /><text
       xml:space="preserve"
       style="font-size:1.76389px;line-height:0.8;font-family:Calibri;-inkscape-font-specification:'Calibri, Normal';fill:#000000;fill-opacity:1;stroke:none;stroke-width:2.64599;stroke-opacity:1"
       x="34.821049"
       y="38.673325"
       id="text2-6-5-7-3-1-4-3-85-0-5-4-5-4-5-4-1-9-6-2-9-1-2-0-3-1"
       transform="rotate(90)"><tspan
         style="font-style:normal;font-variant:normal;font-weight:normal;font-stretch:normal;font-size:1.76389px;line-height:0.8;font-family:'Tw Cen MT';-inkscape-font-specification:'Tw Cen MT, Normal';font-variant-ligatures:normal;font-variant-caps:normal;font-variant-numeric:normal;font-variant-east-asian:normal;text-align:center;text-anchor:middle;fill:#000000;fill-opacity:1;stroke:none;stroke-width:2.646;stroke-opacity:1"
         x="34.821049"
         y="38.673325"
         id="tspan4-0-1-4-1-0-7-2-2-7-2-26-7-7-8-74-6"
         sodipodi:role="line" /></text><g
       aria-label=" "
       transform="matrix(0,1,1,0,0,0)"
       id="text2-6-5-7-3-1-4-3-85-0-5-4-5-4-5-4-1-9-6-2-2-8-7-9"
       style="font-size:2.11667px;line-height:0.8;font-family:Calibri;-inkscape-font-specification:'Calibri, Normal';stroke-width:2.64599" /><g
       aria-label=" "
       transform="rotate(-90)"
       id="text2-6-5-7-3-1-4-3-85-0-5-4-5-4-5-4-1-9-6-2-2-9"
       style="font-size:2.11667px;line-height:0.8;font-family:Calibri;-inkscape-font-specification:'Calibri, Normal';stroke-width:2.64599" /><g
       aria-label="5V"
       transform="rotate(-90)"
       id="text2-6-5-7-3-1-4-3-85-0-5-4-5-4-5-4-1-9-6-2-4"
       style="font-size:2.11667px;line-height:0.8;font-family:Calibri;-inkscape-font-specification:'Calibri, Normal';stroke-width:2.64599" /><g
       aria-label=" "
       transform="rotate(-90)"
       id="text2-6-5-7-3-1-4-3-85-0-5-4-5-4-5-4-1-9-6-2-2-6"
       style="font-size:2.11667px;line-height:0.8;font-family:Calibri;-inkscape-font-specification:'Calibri, Normal';stroke-width:2.64599" /><g
       aria-label="5V"
       transform="rotate(-90)"
       id="text2-6-5-7-3-1-4-3-85-0-5-4-5-4-5-4-1-9-6-2-7-0"
       style="font-size:2.11667px;line-height:0.8;font-family:Calibri;-inkscape-font-specification:'Calibri, Normal';stroke-width:2.64599" /><g
       aria-label="G"
       transform="rotate(-90)"
       id="text2-6-5-7-3-1-4-3-85-0-5-4-5-4-5-4-1-9-6-2-0-00"
       style="font-size:2.11667px;line-height:0.8;font-family:Calibri;-inkscape-font-specification:'Calibri, Normal';stroke-width:2.64599" /><g
       aria-label="G"
       transform="rotate(-90)"
       id="text2-6-5-7-3-1-4-3-85-0-5-4-5-4-5-4-1-9-6-2-0-3-19"
       style="font-size:2.11667px;line-height:0.8;font-family:Calibri;-inkscape-font-specification:'Calibri, Normal';stroke-width:2.64599" /><g
       aria-label="G"
       transform="rotate(-90)"
       id="text2-6-5-7-3-1-4-3-85-0-5-4-5-4-5-4-1-9-6-2-0-3-1-7"
       style="font-size:2.11667px;line-height:0.8;font-family:Calibri;-inkscape-font-specification:'Calibri, Normal';stroke-width:2.64599" /><g
       aria-label="RX"
       transform="rotate(-90)"
       id="text2-6-5-7-3-1-4-3-85-0-5-4-5-4-5-4-1-9-6-2-0-0-4"
       style="font-size:2.11667px;line-height:0.8;font-family:Calibri;-inkscape-font-specification:'Calibri, Normal';stroke-width:2.64599" /><g
       aria-label="TX"
       transform="rotate(-90)"
       id="text2-6-5-7-3-1-4-3-85-0-5-4-5-4-5-4-1-9-6-2-0-0-5-4"
       style="font-size:2.11667px;line-height:0.8;font-family:Calibri;-inkscape-font-specification:'Calibri, Normal';stroke-width:2.64599" /><g
       aria-label="36"
       transform="rotate(-90)"
       id="text2-6-5-7-3-1-4-3-85-0-5-4-5-4-5-4-1-9-6-2-0-0-5-3-0"
       style="font-size:2.11667px;line-height:0.8;font-family:Calibri;-inkscape-font-specification:'Calibri, Normal';stroke-width:2.64599" /><g
       aria-label="35"
       transform="rotate(-90)"
       id="text2-6-5-7-3-1-4-3-85-0-5-4-5-4-5-4-1-9-6-2-0-0-5-3-9-8"
       style="font-size:2.11667px;line-height:0.8;font-family:Calibri;-inkscape-font-specification:'Calibri, Normal';stroke-width:2.64599" /><g
       aria-label="2"
       transform="rotate(-90)"
       id="text2-6-5-7-3-1-4-3-85-0-5-4-5-4-5-4-1-9-6-2-0-0-5-3-9-5-3"
       style="font-size:2.11667px;line-height:0.8;font-family:Calibri;-inkscape-font-specification:'Calibri, Normal';stroke-width:2.64599" /><g
       aria-label="1"
       transform="rotate(-90)"
       id="text2-6-5-7-3-1-4-3-85-0-5-4-5-4-5-4-1-9-6-2-0-0-5-3-9-3-5"
       style="font-size:2.11667px;line-height:0.8;font-family:Calibri;-inkscape-font-specification:'Calibri, Normal';stroke-width:2.64599" /><g
       aria-label="PI / EXPAND"
       id="text2-6-5-7-3-1-4-3-85-0-5-4-5-4-5-4-1-9-7-2"
       style="font-size:2.11667px;line-height:0.8;font-family:Calibri;-inkscape-font-specification:'Calibri, Normal';stroke-width:2.64599" /></g><style
     type="text/css"
     id="style1">&#10;*[layerid=&quot;1&quot;] {stroke:#000000;fill:#000000;}&#10;*[layerid=&quot;2&quot;] {stroke:#000000;fill:#000000;}&#10;*[layerid=&quot;3&quot;] {stroke:#000000;fill:#000000;}&#10;*[layerid=&quot;4&quot;] {stroke:#000000;fill:#000000;}&#10;*[layerid=&quot;5&quot;] {stroke:#000000;fill:#000000;}&#10;*[layerid=&quot;6&quot;] {stroke:#000000;fill:#000000;}&#10;*[layerid=&quot;7&quot;] {stroke:#000000;fill:#000000;}&#10;*[layerid=&quot;8&quot;] {stroke:#000000;fill:#000000;}&#10;*[layerid=&quot;9&quot;] {stroke:#000000;fill:#000000;}&#10;*[layerid=&quot;10&quot;] {stroke:#000000;fill:#000000;}&#10;*[layerid=&quot;11&quot;] {stroke:#000000;fill:#000000;}&#10;*[layerid=&quot;12&quot;] {stroke:#000000;fill:#000000;}&#10;*[layerid=&quot;13&quot;] {stroke:#000000;fill:#000000;}&#10;*[layerid=&quot;14&quot;] {stroke:#000000;fill:#000000;}&#10;*[layerid=&quot;15&quot;] {stroke:#000000;fill:#000000;}&#10;*[layerid=&quot;19&quot;] {stroke:#000000;fill:#000000;}&#10;*[layerid=&quot;21&quot;] {stroke:#000000;fill:#000000;}&#10;*[layerid=&quot;22&quot;] {stroke:#000000;fill:#000000;}&#10;*[layerid=&quot;23&quot;] {stroke:#000000;fill:#000000;}&#10;*[layerid=&quot;24&quot;] {stroke:#000000;fill:#000000;}&#10;*[layerid=&quot;25&quot;] {stroke:#000000;fill:#000000;}&#10;*[layerid=&quot;26&quot;] {stroke:#000000;fill:#000000;}&#10;*[layerid=&quot;27&quot;] {stroke:#000000;fill:#000000;}&#10;*[layerid=&quot;28&quot;] {stroke:#000000;fill:#000000;}&#10;*[layerid=&quot;29&quot;] {stroke:#000000;fill:#000000;}&#10;*[layerid=&quot;30&quot;] {stroke:#000000;fill:#000000;}&#10;*[layerid=&quot;31&quot;] {stroke:#000000;fill:#000000;}&#10;*[layerid=&quot;32&quot;] {stroke:#000000;fill:#000000;}&#10;*[layerid=&quot;33&quot;] {stroke:#000000;fill:#000000;}&#10;*[layerid=&quot;34&quot;] {stroke:#000000;fill:#000000;}&#10;*[layerid=&quot;35&quot;] {stroke:#000000;fill:#000000;}&#10;*[layerid=&quot;36&quot;] {stroke:#000000;fill:#000000;}&#10;*[layerid=&quot;37&quot;] {stroke:#000000;fill:#000000;}&#10;*[layerid=&quot;38&quot;] {stroke:#000000;fill:#000000;}&#10;*[layerid=&quot;39&quot;] {stroke:#000000;fill:#000000;}&#10;*[layerid=&quot;40&quot;] {stroke:#000000;fill:#000000;}&#10;*[layerid=&quot;41&quot;] {stroke:#000000;fill:#000000;}&#10;*[layerid=&quot;42&quot;] {stroke:#000000;fill:#000000;}&#10;*[layerid=&quot;43&quot;] {stroke:#000000;fill:#000000;}&#10;*[layerid=&quot;44&quot;] {stroke:#000000;fill:#000000;}&#10;*[layerid=&quot;45&quot;] {stroke:#000000;fill:#000000;}&#10;*[layerid=&quot;46&quot;] {stroke:#000000;fill:#000000;}&#10;*[layerid=&quot;47&quot;] {stroke:#000000;fill:#000000;}&#10;*[layerid=&quot;48&quot;] {stroke:#000000;fill:#000000;}&#10;*[layerid=&quot;49&quot;] {stroke:#000000;fill:#000000;}&#10;*[layerid=&quot;50&quot;] {stroke:#000000;fill:#000000;}&#10;*[layerid=&quot;51&quot;] {stroke:#000000;fill:#000000;}&#10;*[layerid=&quot;52&quot;] {stroke:#000000;fill:#000000;}&#10;*[layerid=&quot;99&quot;] {stroke:#000000;fill:#000000;}&#10;*[layerid=&quot;100&quot;] {stroke:#000000;fill:#000000;}&#10;*[layerid=&quot;101&quot;] {stroke:#000000;fill:#000000;}&#10;*[layerid=&quot;Hole&quot;] {stroke:#000000;fill:#000000;}&#10;*[layerid=&quot;DRCError&quot;] {stroke:#000000;fill:#000000;}&#10;*[fill=&quot;none&quot;] {fill: none;}&#10;*[stroke=&quot;none&quot;] {stroke: none;}&#10;path, polyline, polygon, line {stroke-linecap:round;}&#10;g[c_partid=&quot;part_pad&quot;][layerid=&quot;1&quot;] ellipse:not([c_etype=&quot;pad_outer&quot;]) {fill:#000000;}&#10;g[c_partid=&quot;part_pad&quot;][layerid=&quot;1&quot;] polygon:not([c_etype=&quot;pad_outer&quot;]) {fill:#000000;}&#10;g[c_partid=&quot;part_pad&quot;][layerid=&quot;1&quot;] polyline:not([c_etype=&quot;pad_outer&quot;]) {stroke:#000000;}&#10;g[c_partid=&quot;part_pad&quot;][layerid=&quot;2&quot;] ellipse:not([c_etype=&quot;pad_outer&quot;]) {fill:#000000;}&#10;g[c_partid=&quot;part_pad&quot;][layerid=&quot;2&quot;] polygon:not([c_etype=&quot;pad_outer&quot;]) {fill:#000000;}&#10;g[c_partid=&quot;part_pad&quot;][layerid=&quot;2&quot;] polyline:not([c_etype=&quot;pad_outer&quot;]) {stroke:#000000;}&#10;g[c_partid=&quot;part_pad&quot;][layerid=&quot;11&quot;] ellipse:not([c_etype=&quot;pad_outer&quot;]) {fill:#000000;}&#10;g[c_partid=&quot;part_pad&quot;][layerid=&quot;11&quot;] polygon:not([c_etype=&quot;pad_outer&quot;]) {fill:#000000;}&#10;g[c_partid=&quot;part_pad&quot;][layerid=&quot;11&quot;] polyline:not([c_etype=&quot;pad_outer&quot;]) {stroke:#000000;}&#10;g[c_partid=&quot;part_pad&quot;][layerid=&quot;11&quot;] circle {fill:#FFFFFF;}&#10;g[c_partid=&quot;part_pad&quot;][layerid=&quot;11&quot;] &gt; polyline:nth-of-type(2) {stroke:#FFFFFF;}&#10;g[c_partid=&quot;part_pad&quot;][layerid=&quot;11&quot;][c_shape=&quot;ELLIPSE&quot;]  polyline:nth-last-of-type(1) {stroke:#FFFFFF;}&#10;g[c_partid=&quot;part_pad&quot;][layerid=&quot;11&quot;][c_shape=&quot;RECT&quot;]  polyline:nth-last-of-type(1) {stroke:#FFFFFF;}&#10;g[c_partid=&quot;part_pad&quot;][layerid=&quot;11&quot;][c_shape=&quot;POLYGON&quot;]  polyline:nth-last-of-type(1) {stroke:#FFFFFF;}&#10;g[c_partid=&quot;part_via&quot;] &gt; * + circle, #gCurParts g[c_partid=&quot;part_via&quot;] &gt; * + circle {fill:#FFFFFF;}&#10;g[c_partid=&quot;part_pad&quot;] &gt; polygon[c_etype=&quot;pad_outer&quot;], #gCurParts g[c_partid=&quot;part_pad&quot;] &gt; polygon[c_etype=&quot;pad_outer&quot;] {stroke-linejoin: round;stroke-miterlimit: 100;}&#10;g[c_partid=&quot;part_hole&quot;] &gt; circle {fill: #FFFFFF;}path, polyline, polygon {stroke-linejoin:round;}&#10;rect, circle, ellipse, polyline, line, polygon, path {shape-rendering:crispEdges;}&#10;</style><style
     type="text/css"
     id="style1-5">&#10;*[layerid=&quot;1&quot;] {stroke:#FF0000;fill:#FF0000;}&#10;*[layerid=&quot;2&quot;] {stroke:#0000FF;fill:#0000FF;}&#10;*[layerid=&quot;3&quot;] {stroke:#FFCC00;fill:#FFCC00;}&#10;*[layerid=&quot;4&quot;] {stroke:#66CC33;fill:#66CC33;}&#10;*[layerid=&quot;5&quot;] {stroke:#808080;fill:#808080;}&#10;*[layerid=&quot;6&quot;] {stroke:#800000;fill:#800000;}&#10;*[layerid=&quot;7&quot;] {stroke:#800080;fill:#800080;stroke-opacity:0.7;fill-opacity:0.7;}&#10;*[layerid=&quot;8&quot;] {stroke:#AA00FF;fill:#AA00FF;stroke-opacity:0.7;fill-opacity:0.7;}&#10;*[layerid=&quot;9&quot;] {stroke:#6464FF;fill:#6464FF;}&#10;*[layerid=&quot;10&quot;] {stroke:#FF00FF;fill:#FF00FF;}&#10;*[layerid=&quot;11&quot;] {stroke:#C0C0C0;fill:#C0C0C0;}&#10;*[layerid=&quot;12&quot;] {stroke:#FFFFFF;fill:#FFFFFF;}&#10;*[layerid=&quot;13&quot;] {stroke:#33CC99;fill:#33CC99;}&#10;*[layerid=&quot;14&quot;] {stroke:#5555FF;fill:#5555FF;}&#10;*[layerid=&quot;15&quot;] {stroke:#F022F0;fill:#F022F0;}&#10;*[layerid=&quot;19&quot;] {stroke:#66CCFF;fill:#66CCFF;}&#10;*[layerid=&quot;21&quot;] {stroke:#999966;fill:#999966;stroke-opacity:1;fill-opacity:1;}&#10;*[layerid=&quot;22&quot;] {stroke:#008000;fill:#008000;stroke-opacity:1;fill-opacity:1;}&#10;*[layerid=&quot;23&quot;] {stroke:#00FF00;fill:#00FF00;}&#10;*[layerid=&quot;24&quot;] {stroke:#BC8E00;fill:#BC8E00;}&#10;*[layerid=&quot;25&quot;] {stroke:#70DBFA;fill:#70DBFA;}&#10;*[layerid=&quot;26&quot;] {stroke:#00CC66;fill:#00CC66;}&#10;*[layerid=&quot;27&quot;] {stroke:#9966FF;fill:#9966FF;}&#10;*[layerid=&quot;28&quot;] {stroke:#800080;fill:#800080;}&#10;*[layerid=&quot;29&quot;] {stroke:#008080;fill:#008080;}&#10;*[layerid=&quot;30&quot;] {stroke:#15935F;fill:#15935F;}&#10;*[layerid=&quot;31&quot;] {stroke:#000080;fill:#000080;}&#10;*[layerid=&quot;32&quot;] {stroke:#00B400;fill:#00B400;}&#10;*[layerid=&quot;33&quot;] {stroke:#2E4756;fill:#2E4756;}&#10;*[layerid=&quot;34&quot;] {stroke:#99842F;fill:#99842F;}&#10;*[layerid=&quot;35&quot;] {stroke:#FFFFAA;fill:#FFFFAA;}&#10;*[layerid=&quot;36&quot;] {stroke:#99842F;fill:#99842F;}&#10;*[layerid=&quot;37&quot;] {stroke:#2E4756;fill:#2E4756;}&#10;*[layerid=&quot;38&quot;] {stroke:#3535FF;fill:#3535FF;}&#10;*[layerid=&quot;39&quot;] {stroke:#8000BC;fill:#8000BC;}&#10;*[layerid=&quot;40&quot;] {stroke:#43AE5F;fill:#43AE5F;}&#10;*[layerid=&quot;41&quot;] {stroke:#C3ECCE;fill:#C3ECCE;}&#10;*[layerid=&quot;42&quot;] {stroke:#728978;fill:#728978;}&#10;*[layerid=&quot;43&quot;] {stroke:#39503F;fill:#39503F;}&#10;*[layerid=&quot;44&quot;] {stroke:#0C715D;fill:#0C715D;}&#10;*[layerid=&quot;45&quot;] {stroke:#5A8A80;fill:#5A8A80;}&#10;*[layerid=&quot;46&quot;] {stroke:#2B937E;fill:#2B937E;}&#10;*[layerid=&quot;47&quot;] {stroke:#23999D;fill:#23999D;}&#10;*[layerid=&quot;48&quot;] {stroke:#45B4E3;fill:#45B4E3;}&#10;*[layerid=&quot;49&quot;] {stroke:#215DA1;fill:#215DA1;}&#10;*[layerid=&quot;50&quot;] {stroke:#4564D7;fill:#4564D7;}&#10;*[layerid=&quot;51&quot;] {stroke:#6969E9;fill:#6969E9;}&#10;*[layerid=&quot;52&quot;] {stroke:#9069E9;fill:#9069E9;}&#10;*[layerid=&quot;99&quot;] {stroke:#00CCCC;fill:#00CCCC;stroke-opacity:0.6;fill-opacity:0.6;}&#10;*[layerid=&quot;100&quot;] {stroke:#CC9999;fill:#CC9999;}&#10;*[layerid=&quot;101&quot;] {stroke:#66FFCC;fill:#66FFCC;}&#10;*[layerid=&quot;Hole&quot;] {stroke:#222222;fill:#222222;}&#10;*[layerid=&quot;DRCError&quot;] {stroke:#FAD609;fill:#FAD609;}&#10;*[fill=&quot;none&quot;] {fill: none;}&#10;*[stroke=&quot;none&quot;] {stroke: none;}&#10;path, polyline, polygon, line {stroke-linecap:round;}&#10;g[c_partid=&quot;part_pad&quot;][layerid=&quot;1&quot;] ellipse:not([c_etype=&quot;pad_outer&quot;]) {fill:#FF0000;}&#10;g[c_partid=&quot;part_pad&quot;][layerid=&quot;1&quot;] polygon:not([c_etype=&quot;pad_outer&quot;]) {fill:#FF0000;}&#10;g[c_partid=&quot;part_pad&quot;][layerid=&quot;1&quot;] polyline:not([c_etype=&quot;pad_outer&quot;]) {stroke:#FF0000;}&#10;g[c_partid=&quot;part_pad&quot;][layerid=&quot;2&quot;] ellipse:not([c_etype=&quot;pad_outer&quot;]) {fill:#0000FF;}&#10;g[c_partid=&quot;part_pad&quot;][layerid=&quot;2&quot;] polygon:not([c_etype=&quot;pad_outer&quot;]) {fill:#0000FF;}&#10;g[c_partid=&quot;part_pad&quot;][layerid=&quot;2&quot;] polyline:not([c_etype=&quot;pad_outer&quot;]) {stroke:#0000FF;}&#10;g[c_partid=&quot;part_pad&quot;][layerid=&quot;11&quot;] ellipse:not([c_etype=&quot;pad_outer&quot;]) {fill:#C0C0C0;}&#10;g[c_partid=&quot;part_pad&quot;][layerid=&quot;11&quot;] polygon:not([c_etype=&quot;pad_outer&quot;]) {fill:#C0C0C0;}&#10;g[c_partid=&quot;part_pad&quot;][layerid=&quot;11&quot;] polyline:not([c_etype=&quot;pad_outer&quot;]) {stroke:#C0C0C0;}&#10;g[c_partid=&quot;part_pad&quot;][layerid=&quot;11&quot;] circle {fill:#222222;}&#10;g[c_partid=&quot;part_pad&quot;][layerid=&quot;11&quot;] &gt; polyline:nth-of-type(2) {stroke:#222222;}&#10;g[c_partid=&quot;part_pad&quot;][layerid=&quot;11&quot;][c_shape=&quot;ELLIPSE&quot;]  polyline:nth-last-of-type(1) {stroke:#222222;}&#10;g[c_partid=&quot;part_pad&quot;][layerid=&quot;11&quot;][c_shape=&quot;RECT&quot;]  polyline:nth-last-of-type(1) {stroke:#222222;}&#10;g[c_partid=&quot;part_pad&quot;][layerid=&quot;11&quot;][c_shape=&quot;POLYGON&quot;]  polyline:nth-last-of-type(1) {stroke:#222222;}&#10;g[c_partid=&quot;part_via&quot;] &gt; * + circle, #gCurParts g[c_partid=&quot;part_via&quot;] &gt; * + circle {fill:#222222;}&#10;g[c_partid=&quot;part_pad&quot;] &gt; polygon[c_etype=&quot;pad_outer&quot;], #gCurParts g[c_partid=&quot;part_pad&quot;] &gt; polygon[c_etype=&quot;pad_outer&quot;] {stroke-linejoin: round;stroke-miterlimit: 100;}&#10;g[c_partid=&quot;part_hole&quot;] &gt; circle {fill: #222222;}path, polyline, polygon {stroke-linejoin:round;}&#10;rect, circle, ellipse, polyline, line, polygon, path {shape-rendering:crispEdges;}&#10;</style><style
     type="text/css"
     id="style1-59">&#10;*[layerid=&quot;1&quot;] {stroke:#FF0000;fill:#FF0000;}&#10;*[layerid=&quot;2&quot;] {stroke:#0000FF;fill:#0000FF;}&#10;*[layerid=&quot;3&quot;] {stroke:#FFCC00;fill:#FFCC00;}&#10;*[layerid=&quot;4&quot;] {stroke:#66CC33;fill:#66CC33;}&#10;*[layerid=&quot;5&quot;] {stroke:#808080;fill:#808080;}&#10;*[layerid=&quot;6&quot;] {stroke:#800000;fill:#800000;}&#10;*[layerid=&quot;7&quot;] {stroke:#800080;fill:#800080;stroke-opacity:0.7;fill-opacity:0.7;}&#10;*[layerid=&quot;8&quot;] {stroke:#AA00FF;fill:#AA00FF;stroke-opacity:0.7;fill-opacity:0.7;}&#10;*[layerid=&quot;9&quot;] {stroke:#6464FF;fill:#6464FF;}&#10;*[layerid=&quot;10&quot;] {stroke:#FF00FF;fill:#FF00FF;}&#10;*[layerid=&quot;11&quot;] {stroke:#C0C0C0;fill:#C0C0C0;}&#10;*[layerid=&quot;12&quot;] {stroke:#FFFFFF;fill:#FFFFFF;}&#10;*[layerid=&quot;13&quot;] {stroke:#33CC99;fill:#33CC99;}&#10;*[layerid=&quot;14&quot;] {stroke:#5555FF;fill:#5555FF;}&#10;*[layerid=&quot;15&quot;] {stroke:#F022F0;fill:#F022F0;}&#10;*[layerid=&quot;19&quot;] {stroke:#66CCFF;fill:#66CCFF;}&#10;*[layerid=&quot;21&quot;] {stroke:#999966;fill:#999966;stroke-opacity:1;fill-opacity:1;}&#10;*[layerid=&quot;22&quot;] {stroke:#008000;fill:#008000;stroke-opacity:1;fill-opacity:1;}&#10;*[layerid=&quot;23&quot;] {stroke:#00FF00;fill:#00FF00;}&#10;*[layerid=&quot;24&quot;] {stroke:#BC8E00;fill:#BC8E00;}&#10;*[layerid=&quot;25&quot;] {stroke:#70DBFA;fill:#70DBFA;}&#10;*[layerid=&quot;26&quot;] {stroke:#00CC66;fill:#00CC66;}&#10;*[layerid=&quot;27&quot;] {stroke:#9966FF;fill:#9966FF;}&#10;*[layerid=&quot;28&quot;] {stroke:#800080;fill:#800080;}&#10;*[layerid=&quot;29&quot;] {stroke:#008080;fill:#008080;}&#10;*[layerid=&quot;30&quot;] {stroke:#15935F;fill:#15935F;}&#10;*[layerid=&quot;31&quot;] {stroke:#000080;fill:#000080;}&#10;*[layerid=&quot;32&quot;] {stroke:#00B400;fill:#00B400;}&#10;*[layerid=&quot;33&quot;] {stroke:#2E4756;fill:#2E4756;}&#10;*[layerid=&quot;34&quot;] {stroke:#99842F;fill:#99842F;}&#10;*[layerid=&quot;35&quot;] {stroke:#FFFFAA;fill:#FFFFAA;}&#10;*[layerid=&quot;36&quot;] {stroke:#99842F;fill:#99842F;}&#10;*[layerid=&quot;37&quot;] {stroke:#2E4756;fill:#2E4756;}&#10;*[layerid=&quot;38&quot;] {stroke:#3535FF;fill:#3535FF;}&#10;*[layerid=&quot;39&quot;] {stroke:#8000BC;fill:#8000BC;}&#10;*[layerid=&quot;40&quot;] {stroke:#43AE5F;fill:#43AE5F;}&#10;*[layerid=&quot;41&quot;] {stroke:#C3ECCE;fill:#C3ECCE;}&#10;*[layerid=&quot;42&quot;] {stroke:#728978;fill:#728978;}&#10;*[layerid=&quot;43&quot;] {stroke:#39503F;fill:#39503F;}&#10;*[layerid=&quot;44&quot;] {stroke:#0C715D;fill:#0C715D;}&#10;*[layerid=&quot;45&quot;] {stroke:#5A8A80;fill:#5A8A80;}&#10;*[layerid=&quot;46&quot;] {stroke:#2B937E;fill:#2B937E;}&#10;*[layerid=&quot;47&quot;] {stroke:#23999D;fill:#23999D;}&#10;*[layerid=&quot;48&quot;] {stroke:#45B4E3;fill:#45B4E3;}&#10;*[layerid=&quot;49&quot;] {stroke:#215DA1;fill:#215DA1;}&#10;*[layerid=&quot;50&quot;] {stroke:#4564D7;fill:#4564D7;}&#10;*[layerid=&quot;51&quot;] {stroke:#6969E9;fill:#6969E9;}&#10;*[layerid=&quot;52&quot;] {stroke:#9069E9;fill:#9069E9;}&#10;*[layerid=&quot;99&quot;] {stroke:#00CCCC;fill:#00CCCC;stroke-opacity:0.6;fill-opacity:0.6;}&#10;*[layerid=&quot;100&quot;] {stroke:#CC9999;fill:#CC9999;}&#10;*[layerid=&quot;101&quot;] {stroke:#66FFCC;fill:#66FFCC;}&#10;*[layerid=&quot;Hole&quot;] {stroke:#222222;fill:#222222;}&#10;*[layerid=&quot;DRCError&quot;] {stroke:#FAD609;fill:#FAD609;}&#10;*[fill=&quot;none&quot;] {fill: none;}&#10;*[stroke=&quot;none&quot;] {stroke: none;}&#10;path, polyline, polygon, line {stroke-linecap:round;}&#10;g[c_partid=&quot;part_pad&quot;][layerid=&quot;1&quot;] ellipse:not([c_etype=&quot;pad_outer&quot;]) {fill:#FF0000;}&#10;g[c_partid=&quot;part_pad&quot;][layerid=&quot;1&quot;] polygon:not([c_etype=&quot;pad_outer&quot;]) {fill:#FF0000;}&#10;g[c_partid=&quot;part_pad&quot;][layerid=&quot;1&quot;] polyline:not([c_etype=&quot;pad_outer&quot;]) {stroke:#FF0000;}&#10;g[c_partid=&quot;part_pad&quot;][layerid=&quot;2&quot;] ellipse:not([c_etype=&quot;pad_outer&quot;]) {fill:#0000FF;}&#10;g[c_partid=&quot;part_pad&quot;][layerid=&quot;2&quot;] polygon:not([c_etype=&quot;pad_outer&quot;]) {fill:#0000FF;}&#10;g[c_partid=&quot;part_pad&quot;][layerid=&quot;2&quot;] polyline:not([c_etype=&quot;pad_outer&quot;]) {stroke:#0000FF;}&#10;g[c_partid=&quot;part_pad&quot;][layerid=&quot;11&quot;] ellipse:not([c_etype=&quot;pad_outer&quot;]) {fill:#C0C0C0;}&#10;g[c_partid=&quot;part_pad&quot;][layerid=&quot;11&quot;] polygon:not([c_etype=&quot;pad_outer&quot;]) {fill:#C0C0C0;}&#10;g[c_partid=&quot;part_pad&quot;][layerid=&quot;11&quot;] polyline:not([c_etype=&quot;pad_outer&quot;]) {stroke:#C0C0C0;}&#10;g[c_partid=&quot;part_pad&quot;][layerid=&quot;11&quot;] circle {fill:#222222;}&#10;g[c_partid=&quot;part_pad&quot;][layerid=&quot;11&quot;] &gt; polyline:nth-of-type(2) {stroke:#222222;}&#10;g[c_partid=&quot;part_pad&quot;][layerid=&quot;11&quot;][c_shape=&quot;ELLIPSE&quot;]  polyline:nth-last-of-type(1) {stroke:#222222;}&#10;g[c_partid=&quot;part_pad&quot;][layerid=&quot;11&quot;][c_shape=&quot;RECT&quot;]  polyline:nth-last-of-type(1) {stroke:#222222;}&#10;g[c_partid=&quot;part_pad&quot;][layerid=&quot;11&quot;][c_shape=&quot;POLYGON&quot;]  polyline:nth-last-of-type(1) {stroke:#222222;}&#10;g[c_partid=&quot;part_via&quot;] &gt; * + circle, #gCurParts g[c_partid=&quot;part_via&quot;] &gt; * + circle {fill:#222222;}&#10;g[c_partid=&quot;part_pad&quot;] &gt; polygon[c_etype=&quot;pad_outer&quot;], #gCurParts g[c_partid=&quot;part_pad&quot;] &gt; polygon[c_etype=&quot;pad_outer&quot;] {stroke-linejoin: round;stroke-miterlimit: 100;}&#10;g[c_partid=&quot;part_hole&quot;] &gt; circle {fill: #222222;}path, polyline, polygon {stroke-linejoin:round;}&#10;rect, circle, ellipse, polyline, line, polygon, path {shape-rendering:crispEdges;}&#10;</style></svg>
